NewsTextura-9pt.ufo
<glyph name="numbersign" format="2">
  <advance width="697"/>
  <unicode hex="0023"/>
  <note>
numbersign
</note>
  <outline>
    <contour>
      <point x="78.24" y="564" type="line"/>
      <point x="81.09" y="457" type="line"/>
      <point x="195.24" y="457" type="line"/>
      <point x="195.24" y="354" type="line"/>
      <point x="78.24" y="354" type="line"/>
      <point x="81.09" y="247" type="line"/>
      <point x="195.24" y="247" type="line"/>
      <point x="195.24" y="137" type="line"/>
      <point x="302.24" y="137" type="line"/>
      <point x="302.24" y="247" type="line"/>
      <point x="405.24" y="247" type="line"/>
      <point x="405.24" y="137" type="line"/>
      <point x="512.24" y="137" type="line"/>
      <point x="512.24" y="247" type="line"/>
      <point x="615" y="247" type="line"/>
      <point x="615" y="354" type="line"/>
      <point x="512.24" y="354" type="line"/>
      <point x="512.24" y="457" type="line"/>
      <point x="615" y="457" type="line"/>
      <point x="615" y="564" type="line"/>
      <point x="512.24" y="564" type="line"/>
      <point x="512.24" y="670" type="line"/>
      <point x="405.24" y="670" type="line"/>
      <point x="405.24" y="564" type="line"/>
      <point x="302.24" y="564" type="line"/>
      <point x="302.24" y="676" type="line"/>
      <point x="195.24" y="676" type="line"/>
      <point x="195.24" y="564" type="line"/>
    </contour>
    <contour>
      <point x="405.24" y="457" type="line"/>
      <point x="405.24" y="354" type="line"/>
      <point x="302.24" y="354" type="line"/>
      <point x="302.24" y="457" type="line"/>
    </contour>
  </outline>
</glyph>
<glyph name="parenright" format="2">
  <advance width="319"/>
  <unicode hex="0029"/>
  <note>
parenright
</note>
  <outline>
    <contour>
      <point x="202.59" y="388.9" type="curve" smooth="yes"/>
      <point x="204.74" y="292.71"/>
      <point x="183.2" y="195.32"/>
      <point x="135.65" y="111.67" type="curve" smooth="yes"/>
      <point x="104.78" y="57.36"/>
      <point x="63.02" y="9.24"/>
      <point x="13.38" y="-28.69" type="curve"/>
      <point x="23.26" y="-45.38" type="line"/>
      <point x="105.91" y="-10.54"/>
      <point x="177.9" y="49.13"/>
      <point x="227.47" y="123.88" type="curve" smooth="yes"/>
      <point x="277.04" y="198.63"/>
      <point x="304" y="288.17"/>
      <point x="303.93" y="377.86" type="curve" smooth="yes"/>
      <point x="303.86" y="467.68"/>
      <point x="276.7" y="557.3"/>
      <point x="226.88" y="632.04" type="curve" smooth="yes"/>
      <point x="177.07" y="706.78"/>
      <point x="104.8" y="766.34"/>
      <point x="21.92" y="800.97" type="curve"/>
      <point x="12.04" y="784.28" type="line"/>
      <point x="61.6" y="746.26"/>
      <point x="103.34" y="698.16"/>
      <point x="134.31" y="643.92" type="curve" smooth="yes"/>
      <point x="178.4" y="566.71"/>
      <point x="200.61" y="477.79"/>
    </contour>
  </outline>
</glyph>
<glyph name="A" format="2">
  <advance width="767"/>
  <unicode hex="0041"/>
  <note>
A
</note>
  <anchor x="395" y="-49" name="bottom"/>
  <anchor x="480" y="800" name="top"/>
  <outline>
    <contour>
      <point x="166" y="128" type="line"/>
      <point x="200" y="128" type="line"/>
      <point x="529" y="673" type="line"/>
      <point x="495" y="673" type="line"/>
    </contour>
    <contour>
      <point x="273" y="271" type="line"/>
      <point x="541" y="271" type="line"/>
      <point x="611" y="373" type="line"/>
      <point x="336" y="373" type="line"/>
    </contour>
    <contour>
      <point x="292" y="318" type="curve"/>
      <point x="305" y="336" type="line"/>
      <point x="252" y="370"/>
      <point x="214" y="426"/>
      <point x="214" y="489" type="curve" smooth="yes"/>
      <point x="214" y="562"/>
      <point x="272" y="669"/>
      <point x="401" y="669" type="curve" smooth="yes"/>
      <point x="477" y="669"/>
      <point x="540" y="566"/>
      <point x="569" y="604" type="curve" smooth="yes"/>
      <point x="639" y="696" type="line"/>
      <point x="594" y="731"/>
      <point x="523" y="768"/>
      <point x="438" y="768" type="curve" smooth="yes"/>
      <point x="310" y="768"/>
      <point x="160" y="692"/>
      <point x="160" y="513" type="curve" smooth="yes"/>
      <point x="160" y="408"/>
      <point x="235" y="341"/>
    </contour>
    <contour>
      <point x="629" y="0" type="curve"/>
      <point x="754" y="108" type="line"/>
      <point x="736" y="132" type="line"/>
      <point x="702" y="110" type="line"/>
      <point x="672" y="110"/>
      <point x="648" y="137"/>
      <point x="649" y="223" type="curve" smooth="yes"/>
      <point x="655" y="653" type="line" smooth="yes"/>
      <point x="656" y="694"/>
      <point x="663" y="717"/>
      <point x="692" y="753" type="curve"/>
      <point x="672" y="773" type="line"/>
      <point x="522" y="642" type="line"/>
      <point x="522" y="150" type="line" smooth="yes"/>
      <point x="522" y="58"/>
      <point x="603" y="0"/>
    </contour>
    <contour>
      <point x="47" y="10" type="curve"/>
      <point x="65" y="0" type="line"/>
      <point x="92" y="26"/>
      <point x="145" y="65"/>
      <point x="237" y="65" type="curve" smooth="yes"/>
      <point x="299" y="65"/>
      <point x="355" y="37"/>
      <point x="394" y="0" type="curve"/>
      <point x="583" y="172" type="line"/>
      <point x="555" y="201" type="line"/>
      <point x="469" y="124" type="line"/>
      <point x="444" y="144"/>
      <point x="380" y="174"/>
      <point x="311" y="174" type="curve" smooth="yes"/>
      <point x="199" y="174"/>
      <point x="101" y="120"/>
    </contour>
  </outline>
</glyph>
<glyph name="B" format="2">
  <advance width="855"/>
  <unicode hex="0042"/>
  <note>
B
</note>
  <outline>
    <contour>
      <point x="67.28" y="309.38" type="curve"/>
      <point x="85" y="309" type="line"/>
      <point x="85" y="350"/>
      <point x="107" y="367"/>
      <point x="135" y="367" type="curve" smooth="yes"/>
      <point x="204" y="367" type="line"/>
      <point x="204" y="479" type="line"/>
      <point x="167" y="479" type="line" smooth="yes"/>
      <point x="105" y="479"/>
      <point x="52" y="431"/>
      <point x="52" y="370" type="curve" smooth="yes"/>
      <point x="52" y="350"/>
      <point x="54" y="334"/>
    </contour>
    <contour>
      <point x="123" y="95" type="line"/>
      <point x="191" y="116"/>
      <point x="303" y="167"/>
      <point x="303" y="294" type="curve" smooth="yes"/>
      <point x="303" y="552" type="line" smooth="yes"/>
      <point x="303" y="588"/>
      <point x="309" y="606"/>
      <point x="336" y="626" type="curve" smooth="yes"/>
      <point x="490" y="741" type="line"/>
      <point x="490" y="763" type="line"/>
      <point x="462" y="750"/>
      <point x="432" y="740"/>
      <point x="394" y="740" type="curve" smooth="yes"/>
      <point x="352" y="740"/>
      <point x="309" y="759"/>
      <point x="261" y="759" type="curve" smooth="yes"/>
      <point x="188" y="759"/>
      <point x="120" y="704"/>
      <point x="91" y="634" type="curve"/>
      <point x="115" y="634" type="line"/>
      <point x="122" y="658"/>
      <point x="151" y="678"/>
      <point x="175" y="678" type="curve" smooth="yes"/>
      <point x="236" y="678"/>
      <point x="256" y="653"/>
      <point x="319" y="655" type="curve"/>
      <point x="234" y="602" type="line" smooth="yes"/>
      <point x="190" y="575"/>
      <point x="174" y="556"/>
      <point x="174" y="505" type="curve" smooth="yes"/>
      <point x="174" y="299" type="line" smooth="yes"/>
      <point x="174" y="215"/>
      <point x="174" y="154"/>
      <point x="113" y="119" type="curve"/>
    </contour>
    <contour>
      <point x="69" y="-32" type="curve"/>
      <point x="93" y="-32" type="line"/>
      <point x="139" y="13"/>
      <point x="213" y="47"/>
      <point x="298" y="46" type="curve" smooth="yes"/>
      <point x="353" y="45"/>
      <point x="425" y="33"/>
      <point x="494" y="-4" type="curve"/>
      <point x="617" y="60" type="line"/>
      <point x="634" y="82" type="line"/>
      <point x="617" y="82" type="line"/>
      <point x="569" y="128"/>
      <point x="487" y="163"/>
      <point x="375" y="163" type="curve" smooth="yes"/>
      <point x="254" y="163"/>
      <point x="107" y="51"/>
    </contour>
    <contour>
      <point x="523" y="79" type="line"/>
      <point x="552" y="79" type="line"/>
      <point x="552" y="704" type="line"/>
      <point x="523" y="704" type="line"/>
    </contour>
    <contour>
      <point x="542" y="152" type="line"/>
      <point x="727" y="244" type="line"/>
      <point x="727" y="276" type="line"/>
      <point x="542" y="184" type="line"/>
    </contour>
    <contour>
      <point x="542" y="256" type="line"/>
      <point x="727" y="348" type="line"/>
      <point x="727" y="380" type="line"/>
      <point x="542" y="288" type="line"/>
    </contour>
    <contour>
      <point x="699" y="344" type="curve"/>
      <point x="699" y="121" type="line"/>
      <point x="617" y="82" type="line"/>
      <point x="617" y="60" type="line"/>
      <point x="830" y="168" type="line"/>
      <point x="830" y="421" type="line"/>
      <point x="791" y="453"/>
      <point x="740" y="482"/>
      <point x="693" y="499" type="curve"/>
      <point x="817" y="587" type="line"/>
      <point x="656" y="776" type="line"/>
      <point x="536" y="737"/>
      <point x="429" y="661"/>
      <point x="352" y="562" type="curve"/>
      <point x="352" y="249" type="line" smooth="yes"/>
      <point x="352" y="216"/>
      <point x="329" y="164"/>
      <point x="308" y="133" type="curve"/>
      <point x="352" y="133" type="line"/>
      <point x="428" y="202"/>
      <point x="485" y="257"/>
      <point x="485" y="352" type="curve" smooth="yes"/>
      <point x="485" y="613" type="line" smooth="yes"/>
      <point x="485" y="638"/>
      <point x="500" y="667"/>
      <point x="524" y="686" type="curve"/>
      <point x="553" y="692" type="line"/>
      <point x="686" y="535" type="line"/>
      <point x="541" y="427" type="line"/>
      <point x="552" y="427" type="line"/>
      <point x="611" y="409"/>
      <point x="666" y="374"/>
    </contour>
  </outline>
</glyph>
<glyph name="C" format="2">
  <advance width="748"/>
  <unicode hex="0043"/>
  <note>
C
</note>
  <outline>
    <contour>
      <point x="454" y="-17" type="curve" smooth="yes"/>
      <point x="580" y="-17"/>
      <point x="712" y="101"/>
      <point x="715.68" y="240.01" type="curve"/>
      <point x="696.51" y="240.01" type="line"/>
      <point x="659" y="171"/>
      <point x="586" y="94"/>
      <point x="460" y="94" type="curve" smooth="yes"/>
      <point x="311" y="94"/>
      <point x="214" y="247"/>
      <point x="214" y="375" type="curve" smooth="yes"/>
      <point x="214" y="573"/>
      <point x="271" y="633"/>
      <point x="375" y="708" type="curve"/>
      <point x="365.68" y="722.86" type="line"/>
      <point x="209" y="671"/>
      <point x="93" y="513"/>
      <point x="93.18" y="358.01" type="curve" smooth="yes"/>
      <point x="93" y="144"/>
      <point x="234" y="-17"/>
    </contour>
    <contour>
      <point x="470" y="64" type="line"/>
      <point x="501" y="64" type="line"/>
      <point x="501" y="691" type="line"/>
      <point x="470" y="691" type="line"/>
    </contour>
    <contour>
      <point x="213" y="208" type="line"/>
      <point x="426" y="297" type="line"/>
      <point x="426" y="704" type="line"/>
      <point x="217" y="577" type="line"/>
      <point x="217" y="542" type="line"/>
      <point x="297" y="592" type="line"/>
      <point x="297" y="272" type="line"/>
      <point x="213" y="237" type="line"/>
    </contour>
    <contour>
      <point x="623" y="576" type="curve"/>
      <point x="742" y="700" type="line"/>
      <point x="734" y="710" type="line"/>
      <point x="702" y="683" type="line"/>
      <point x="647" y="701"/>
      <point x="584" y="731"/>
      <point x="533" y="769" type="curve"/>
      <point x="426" y="704" type="line"/>
      <point x="402" y="659" type="line"/>
      <point x="435" y="676" type="line"/>
      <point x="486" y="642"/>
      <point x="564" y="599"/>
    </contour>
  </outline>
</glyph>
<glyph name="F" format="2">
  <advance width="679"/>
  <unicode hex="0046"/>
  <note>
F
</note>
  <outline>
    <contour>
      <point x="185" y="73" type="curve"/>
      <point x="93" y="69"/>
      <point x="50" y="19"/>
      <point x="50" y="-46" type="curve" smooth="yes"/>
      <point x="50" y="-119"/>
      <point x="90" y="-164"/>
      <point x="175" y="-165" type="curve"/>
      <point x="175" y="-140" type="line"/>
      <point x="147" y="-134"/>
      <point x="129" y="-111"/>
      <point x="129" y="-87" type="curve" smooth="yes"/>
      <point x="129" y="-67"/>
      <point x="150" y="-57"/>
      <point x="164" y="-57" type="curve" smooth="yes"/>
      <point x="220" y="-57" type="line" smooth="yes"/>
      <point x="321" y="-57"/>
      <point x="468" y="153"/>
      <point x="516" y="219" type="curve"/>
      <point x="516" y="736" type="line"/>
      <point x="375" y="611" type="line"/>
      <point x="375" y="114" type="line" smooth="yes"/>
      <point x="375" y="82"/>
      <point x="370" y="62"/>
      <point x="354" y="55" type="curve"/>
      <point x="311" y="55"/>
      <point x="258" y="73"/>
    </contour>
    <contour>
      <point x="74" y="302" type="curve"/>
      <point x="92" y="302" type="line"/>
      <point x="92" y="343"/>
      <point x="112" y="365"/>
      <point x="142" y="365" type="curve" smooth="yes"/>
      <point x="229" y="365" type="line"/>
      <point x="229" y="477" type="line"/>
      <point x="187" y="477" type="line" smooth="yes"/>
      <point x="120" y="477"/>
      <point x="60" y="432"/>
      <point x="60" y="367" type="curve" smooth="yes"/>
      <point x="60" y="344"/>
      <point x="65" y="322"/>
    </contour>
    <contour>
      <point x="157" y="45" type="line"/>
      <point x="263" y="109" type="line" smooth="yes"/>
      <point x="309" y="137"/>
      <point x="327" y="162"/>
      <point x="327" y="238" type="curve" smooth="yes"/>
      <point x="327" y="548" type="line" smooth="yes"/>
      <point x="327" y="616"/>
      <point x="346" y="663"/>
      <point x="406" y="703" type="curve" smooth="yes"/>
      <point x="478" y="751" type="line"/>
      <point x="470" y="772" type="line"/>
      <point x="445" y="759"/>
      <point x="422" y="753"/>
      <point x="396" y="753" type="curve" smooth="yes"/>
      <point x="359" y="753"/>
      <point x="301" y="779"/>
      <point x="241" y="779" type="curve" smooth="yes"/>
      <point x="172" y="779"/>
      <point x="102" y="730"/>
      <point x="73" y="660" type="curve"/>
      <point x="90" y="651" type="line"/>
      <point x="107" y="678"/>
      <point x="134" y="695"/>
      <point x="160" y="695" type="curve" smooth="yes"/>
      <point x="203" y="695"/>
      <point x="245" y="665"/>
      <point x="300" y="665" type="curve" smooth="yes"/>
      <point x="310" y="665"/>
      <point x="324" y="668"/>
      <point x="335" y="670" type="curve"/>
      <point x="266" y="615" type="line" smooth="yes"/>
      <point x="228" y="585"/>
      <point x="198" y="554"/>
      <point x="198" y="502" type="curve" smooth="yes"/>
      <point x="198" y="269" type="line" smooth="yes"/>
      <point x="198" y="162"/>
      <point x="192" y="99"/>
      <point x="150" y="58" type="curve"/>
    </contour>
    <contour>
      <point x="662" y="594" type="curve"/>
      <point x="784" y="716" type="line"/>
      <point x="756" y="736" type="line"/>
      <point x="725" y="708" type="line"/>
      <point x="678" y="724"/>
      <point x="622" y="747"/>
      <point x="571" y="785" type="curve"/>
      <point x="516" y="736" type="line"/>
      <point x="485" y="665" type="line"/>
      <point x="516" y="665" type="line"/>
      <point x="567" y="631"/>
      <point x="603" y="615"/>
    </contour>
    <contour>
      <point x="458" y="365" type="line"/>
      <point x="604" y="365" type="line"/>
      <point x="716" y="482" type="line"/>
      <point x="458" y="482" type="line"/>
    </contour>
  </outline>
</glyph>
<glyph name="G" format="2">
  <advance width="807"/>
  <unicode hex="0047"/>
  <note>
G
</note>
  <outline>
    <contour>
      <point x="468" y="0" type="line"/>
      <point x="497" y="0" type="line"/>
      <point x="497" y="442" type="line"/>
      <point x="468" y="442" type="line"/>
    </contour>
    <contour>
      <point x="487" y="238" type="line"/>
      <point x="646" y="319" type="line"/>
      <point x="646" y="350" type="line"/>
      <point x="487" y="272" type="line"/>
    </contour>
    <contour>
      <point x="487" y="133" type="line"/>
      <point x="668" y="225" type="line"/>
      <point x="668" y="256" type="line"/>
      <point x="487" y="166" type="line"/>
    </contour>
    <contour>
      <point x="388" y="334" type="line"/>
      <point x="749" y="692" type="line"/>
      <point x="728" y="713" type="line"/>
      <point x="695" y="681" type="line"/>
      <point x="640" y="699"/>
      <point x="573" y="739"/>
      <point x="522" y="777" type="curve"/>
      <point x="414" y="699" type="line"/>
      <point x="392" y="679" type="line"/>
      <point x="425" y="679" type="line"/>
      <point x="468" y="651"/>
      <point x="540" y="604"/>
      <point x="594" y="580" type="curve"/>
      <point x="388" y="374" type="line"/>
    </contour>
    <contour>
      <point x="231" y="150" type="line"/>
      <point x="351" y="177"/>
      <point x="414" y="232"/>
      <point x="414" y="349" type="curve" smooth="yes"/>
      <point x="414" y="679" type="line"/>
      <point x="284" y="625" type="line"/>
      <point x="284" y="319" type="line" smooth="yes"/>
      <point x="284" y="265"/>
      <point x="268" y="201"/>
      <point x="216" y="185" type="curve"/>
    </contour>
    <contour>
      <point x="284" y="625" type="curve"/>
      <point x="414" y="625" type="line"/>
      <point x="414" y="699" type="line"/>
      <point x="220" y="680"/>
      <point x="81" y="498"/>
      <point x="81" y="309" type="curve" smooth="yes"/>
      <point x="81" y="128"/>
      <point x="231" y="-27"/>
      <point x="435" y="-27" type="curve" smooth="yes"/>
      <point x="633" y="-27"/>
      <point x="776" y="135"/>
      <point x="776" y="297" type="curve" smooth="yes"/>
      <point x="776" y="462"/>
      <point x="626" y="529"/>
      <point x="569" y="529" type="curve"/>
      <point x="474" y="430" type="line"/>
      <point x="565" y="409"/>
      <point x="647" y="312"/>
      <point x="647" y="224" type="curve" smooth="yes"/>
      <point x="647" y="110"/>
      <point x="576" y="13"/>
      <point x="478" y="13" type="curve" smooth="yes"/>
      <point x="213" y="13"/>
      <point x="219" y="380"/>
      <point x="219" y="459" type="curve" smooth="yes"/>
      <point x="219" y="517"/>
      <point x="238" y="575"/>
    </contour>
  </outline>
</glyph>
<glyph name="H" format="2">
  <advance width="780"/>
  <unicode hex="0048"/>
  <note>
H
</note>
  <outline>
    <contour>
      <point x="52.35" y="626.32" type="curve"/>
      <point x="71.52" y="616.75" type="line"/>
      <point x="87" y="643"/>
      <point x="121" y="658"/>
      <point x="147" y="658" type="curve" smooth="yes"/>
      <point x="177" y="658"/>
      <point x="209" y="649"/>
      <point x="250" y="649" type="curve" smooth="yes"/>
      <point x="310" y="649"/>
      <point x="351" y="687"/>
      <point x="414.69" y="758.37" type="curve"/>
      <point x="395.51" y="767.96" type="line"/>
      <point x="381" y="758"/>
      <point x="351" y="746"/>
      <point x="326" y="746" type="curve" smooth="yes"/>
      <point x="293" y="746"/>
      <point x="246" y="754"/>
      <point x="199" y="754" type="curve" smooth="yes"/>
      <point x="121" y="754"/>
      <point x="73" y="689"/>
    </contour>
    <contour>
      <point x="45" y="-35" type="curve"/>
      <point x="76" y="-35" type="line"/>
      <point x="113" y="6"/>
      <point x="165" y="27"/>
      <point x="223" y="27" type="curve" smooth="yes"/>
      <point x="259" y="27"/>
      <point x="303" y="13"/>
      <point x="332.5" y="-9.02" type="curve"/>
      <point x="432.17" y="86.65" type="line"/>
      <point x="426.97" y="89.55"/>
      <point x="421.67" y="92.26"/>
      <point x="416.29" y="94.8" type="curve"/>
      <point x="416.29" y="342.98" type="line"/>
      <point x="553.22" y="342.98" type="line"/>
      <point x="553.01" y="121.02" type="line"/>
      <point x="501.63" y="81.02" type="line"/>
      <point x="512.96" y="66.31" type="line"/>
      <point x="537.29" y="85.02" type="line"/>
      <point x="634.2" y="-3.23" type="line"/>
      <point x="766.5" y="108.97" type="line"/>
      <point x="752.12" y="123.35" type="line"/>
      <point x="721" y="96.97" type="line"/>
      <point x="692.5" y="128.78" type="line"/>
      <point x="692.5" y="670.61" type="line"/>
      <point x="730.25" y="701.22" type="line"/>
      <point x="712.61" y="722.97" type="line"/>
      <point x="683.17" y="699.09" type="line"/>
      <point x="607.5" y="760.96" type="line"/>
      <point x="491.58" y="666.88" type="line"/>
      <point x="492.25" y="639.21" type="line"/>
      <point x="526.5" y="665.46" type="line"/>
      <point x="553.49" y="639.96" type="line"/>
      <point x="553.32" y="459.96" type="line"/>
      <point x="416.28" y="459.96" type="line"/>
      <point x="416.28" y="702.46" type="line"/>
      <point x="387.62" y="702.46" type="line"/>
      <point x="351" y="661"/>
      <point x="338" y="645"/>
      <point x="318" y="631" type="curve" smooth="yes"/>
      <point x="250" y="584"/>
      <point x="213" y="566"/>
      <point x="213" y="483" type="curve" smooth="yes"/>
      <point x="212.89" y="455.86" type="line"/>
      <point x="144" y="453"/>
      <point x="96" y="406"/>
      <point x="96" y="349" type="curve" smooth="yes"/>
      <point x="96" y="329"/>
      <point x="98" y="312"/>
      <point x="112.27" y="287.11" type="curve"/>
      <point x="131" y="287" type="line"/>
      <point x="131" y="321"/>
      <point x="144" y="345"/>
      <point x="187" y="345" type="curve" smooth="yes"/>
      <point x="212.92" y="344.95" type="line"/>
      <point x="214" y="254" type="line" smooth="yes"/>
      <point x="214" y="212"/>
      <point x="201" y="166"/>
      <point x="158.5" y="143.29" type="curve"/>
      <point x="158.5" y="118.73" type="line"/>
      <point x="269" y="129"/>
      <point x="342" y="187"/>
      <point x="341.91" y="303.98" type="curve" smooth="yes"/>
      <point x="341.91" y="448.98" type="line"/>
      <point x="341.98" y="526.98" type="line" smooth="yes"/>
      <point x="342" y="587"/>
      <point x="346" y="626"/>
      <point x="387.62" y="672.44" type="curve"/>
      <point x="387.62" y="106.4" type="line"/>
      <point x="360" y="116"/>
      <point x="328" y="122"/>
      <point x="288" y="122" type="curve" smooth="yes"/>
      <point x="212" y="122"/>
      <point x="105" y="81"/>
    </contour>
  </outline>
</glyph>
<glyph name="I" format="2">
  <advance width="615"/>
  <unicode hex="0049"/>
  <note>
I
</note>
  <outline>
    <contour>
      <point x="238" y="346" type="line" smooth="yes"/>
      <point x="238" y="229"/>
      <point x="243" y="188"/>
      <point x="176" y="150" type="curve"/>
      <point x="209" y="150" type="line"/>
      <point x="307" y="180"/>
      <point x="367" y="223"/>
      <point x="367" y="318" type="curve" smooth="yes"/>
      <point x="367" y="539" type="line" smooth="yes"/>
      <point x="367" y="691"/>
      <point x="440" y="674"/>
      <point x="508" y="762" type="curve"/>
      <point x="509" y="789" type="line"/>
      <point x="482" y="764"/>
      <point x="454" y="757"/>
      <point x="423" y="757" type="curve" smooth="yes"/>
      <point x="364" y="757"/>
      <point x="328" y="781"/>
      <point x="262" y="781" type="curve" smooth="yes"/>
      <point x="188" y="781"/>
      <point x="125" y="711"/>
      <point x="95" y="637" type="curve"/>
      <point x="118" y="637" type="line"/>
      <point x="128" y="662"/>
      <point x="158" y="677"/>
      <point x="188" y="677" type="curve" smooth="yes"/>
      <point x="226" y="677"/>
      <point x="259" y="662"/>
      <point x="313" y="662" type="curve" smooth="yes"/>
      <point x="335" y="662"/>
      <point x="360" y="667"/>
      <point x="380" y="674" type="curve"/>
      <point x="300" y="611" type="line" smooth="yes"/>
      <point x="255" y="576"/>
      <point x="238" y="557"/>
      <point x="238" y="502" type="curve" smooth="yes"/>
    </contour>
    <contour>
      <point x="155" y="-100" type="line"/>
      <point x="95" y="-96"/>
      <point x="43" y="-41"/>
      <point x="43" y="11" type="curve" smooth="yes"/>
      <point x="43" y="74"/>
      <point x="97" y="132"/>
      <point x="159" y="132" type="curve" smooth="yes"/>
      <point x="253" y="132"/>
      <point x="353" y="60"/>
      <point x="390" y="60" type="curve" smooth="yes"/>
      <point x="411" y="60"/>
      <point x="423" y="86"/>
      <point x="423" y="120" type="curve" smooth="yes"/>
      <point x="423" y="538" type="line" smooth="yes"/>
      <point x="423" y="651"/>
      <point x="447" y="680"/>
      <point x="595" y="774" type="curve"/>
      <point x="610" y="757" type="line"/>
      <point x="574" y="730"/>
      <point x="564" y="697"/>
      <point x="564" y="649" type="curve" smooth="yes"/>
      <point x="564" y="234" type="line"/>
      <point x="510" y="140"/>
      <point x="363" y="-20"/>
      <point x="295" y="-20" type="curve" smooth="yes"/>
      <point x="258" y="-20"/>
      <point x="164" y="-3"/>
      <point x="138" y="-3" type="curve" smooth="yes"/>
      <point x="119" y="-3"/>
      <point x="105" y="-21"/>
      <point x="105" y="-39" type="curve" smooth="yes"/>
      <point x="105" y="-63"/>
      <point x="128" y="-83"/>
      <point x="155" y="-84" type="curve"/>
    </contour>
    <contour>
      <point x="125" y="300" type="curve"/>
      <point x="144" y="300" type="line"/>
      <point x="144" y="354"/>
      <point x="163" y="364"/>
      <point x="225" y="364" type="curve" smooth="yes"/>
      <point x="251" y="364" type="line"/>
      <point x="251" y="473" type="line"/>
      <point x="225" y="473" type="line" smooth="yes"/>
      <point x="170" y="473"/>
      <point x="110" y="435"/>
      <point x="110" y="359" type="curve" smooth="yes"/>
      <point x="110" y="340"/>
      <point x="115" y="318"/>
    </contour>
  </outline>
</glyph>
<glyph name="K" format="2">
  <advance width="820"/>
  <unicode hex="004B"/>
  <note>
K
</note>
  <outline>
    <contour>
      <point x="83" y="-23" type="curve"/>
      <point x="114" y="-23" type="line"/>
      <point x="143" y="22"/>
      <point x="199" y="56"/>
      <point x="261" y="56" type="curve" smooth="yes"/>
      <point x="331" y="56"/>
      <point x="388" y="36"/>
      <point x="446" y="-8" type="curve"/>
      <point x="584" y="101" type="line"/>
      <point x="602" y="55"/>
      <point x="628" y="14"/>
      <point x="675" y="-7" type="curve"/>
      <point x="828" y="115" type="line"/>
      <point x="828" y="145" type="line"/>
      <point x="759" y="92" type="line"/>
      <point x="717" y="121"/>
      <point x="697" y="184"/>
      <point x="683" y="253" type="curve" smooth="yes"/>
      <point x="665" y="343"/>
      <point x="620" y="430"/>
      <point x="508" y="463" type="curve"/>
      <point x="637" y="613" type="line"/>
      <point x="717" y="623"/>
      <point x="768" y="683"/>
      <point x="768" y="751" type="curve" smooth="yes"/>
      <point x="768" y="758"/>
      <point x="767" y="767"/>
      <point x="766" y="776" type="curve"/>
      <point x="752" y="776" type="line"/>
      <point x="743" y="745"/>
      <point x="710" y="719"/>
      <point x="676" y="719" type="curve" smooth="yes"/>
      <point x="636" y="719"/>
      <point x="603" y="741"/>
      <point x="586" y="761" type="curve"/>
      <point x="463" y="614" type="line"/>
      <point x="477" y="600" type="line"/>
      <point x="515" y="642" type="line"/>
      <point x="543" y="624"/>
      <point x="575" y="614"/>
      <point x="609" y="612" type="curve"/>
      <point x="404" y="375" type="line"/>
      <point x="404" y="542" type="line" smooth="yes"/>
      <point x="404" y="649"/>
      <point x="446" y="706"/>
      <point x="521" y="764" type="curve"/>
      <point x="509" y="783" type="line"/>
      <point x="423" y="720"/>
      <point x="375" y="645"/>
      <point x="375" y="531" type="curve" smooth="yes"/>
      <point x="375" y="309" type="line" smooth="yes"/>
      <point x="375" y="225"/>
      <point x="336" y="190"/>
      <point x="256" y="138" type="curve"/>
      <point x="181" y="108"/>
      <point x="119" y="49"/>
    </contour>
    <contour>
      <point x="331" y="158" type="curve"/>
      <point x="384" y="204"/>
      <point x="401" y="239"/>
      <point x="403" y="309" type="curve" smooth="yes"/>
      <point x="404" y="348" type="line"/>
      <point x="408" y="348" type="line"/>
      <point x="421" y="363" type="line"/>
      <point x="504" y="340"/>
      <point x="545" y="272"/>
      <point x="562" y="184" type="curve" smooth="yes"/>
      <point x="566" y="163"/>
      <point x="573" y="140"/>
      <point x="579" y="119" type="curve"/>
      <point x="550" y="96" type="line"/>
      <point x="494" y="142"/>
      <point x="424" y="161"/>
      <point x="368" y="161" type="curve" smooth="yes"/>
      <point x="354" y="161"/>
      <point x="338" y="159"/>
    </contour>
    <contour>
      <point x="195" y="346" type="line" smooth="yes"/>
      <point x="195" y="229"/>
      <point x="200" y="188"/>
      <point x="133" y="150" type="curve"/>
      <point x="166" y="150" type="line"/>
      <point x="264" y="180"/>
      <point x="324" y="223"/>
      <point x="324" y="318" type="curve" smooth="yes"/>
      <point x="324" y="539" type="line" smooth="yes"/>
      <point x="324" y="691"/>
      <point x="401" y="707"/>
      <point x="441" y="745" type="curve"/>
      <point x="441" y="777" type="line"/>
      <point x="426" y="759"/>
      <point x="400" y="757"/>
      <point x="369" y="757" type="curve" smooth="yes"/>
      <point x="310" y="757"/>
      <point x="285" y="781"/>
      <point x="219" y="781" type="curve" smooth="yes"/>
      <point x="145" y="781"/>
      <point x="82" y="711"/>
      <point x="52" y="637" type="curve"/>
      <point x="75" y="637" type="line"/>
      <point x="85" y="662"/>
      <point x="115" y="677"/>
      <point x="145" y="677" type="curve" smooth="yes"/>
      <point x="183" y="677"/>
      <point x="216" y="662"/>
      <point x="270" y="662" type="curve" smooth="yes"/>
      <point x="292" y="662"/>
      <point x="317" y="667"/>
      <point x="337" y="674" type="curve"/>
      <point x="257" y="611" type="line" smooth="yes"/>
      <point x="212" y="576"/>
      <point x="195" y="557"/>
      <point x="195" y="502" type="curve" smooth="yes"/>
    </contour>
    <contour>
      <point x="82" y="300" type="curve"/>
      <point x="101" y="300" type="line"/>
      <point x="101" y="354"/>
      <point x="120" y="364"/>
      <point x="182" y="364" type="curve" smooth="yes"/>
      <point x="208" y="364" type="line"/>
      <point x="208" y="473" type="line"/>
      <point x="182" y="473" type="line" smooth="yes"/>
      <point x="127" y="473"/>
      <point x="67" y="435"/>
      <point x="67" y="359" type="curve" smooth="yes"/>
      <point x="67" y="340"/>
      <point x="72" y="318"/>
    </contour>
  </outline>
</glyph>
<glyph name="N" format="2">
  <advance width="693"/>
  <unicode hex="004E"/>
  <note>
N
</note>
  <outline>
    <contour>
      <point x="607" y="588" type="curve"/>
      <point x="677" y="588"/>
      <point x="734" y="643"/>
      <point x="734" y="703" type="curve" smooth="yes"/>
      <point x="734" y="721"/>
      <point x="730" y="741"/>
      <point x="721" y="757" type="curve"/>
      <point x="714" y="757" type="line"/>
      <point x="714" y="733"/>
      <point x="681" y="704"/>
      <point x="650" y="704" type="curve" smooth="yes"/>
      <point x="621" y="704"/>
      <point x="594" y="718"/>
      <point x="571" y="748" type="curve"/>
      <point x="565" y="748" type="line"/>
      <point x="429" y="600" type="line"/>
      <point x="435" y="594" type="line"/>
      <point x="474" y="636" type="line"/>
      <point x="500" y="610"/>
      <point x="558" y="588"/>
    </contour>
    <contour>
      <point x="570" y="0" type="line"/>
      <point x="607" y="0" type="line"/>
      <point x="607" y="618" type="line"/>
      <point x="579" y="618" type="line"/>
      <point x="579" y="258" type="line"/>
      <point x="325" y="683" type="line" smooth="yes"/>
      <point x="300" y="725"/>
      <point x="267" y="759"/>
      <point x="217" y="759" type="curve" smooth="yes"/>
      <point x="126" y="759"/>
      <point x="87" y="693"/>
      <point x="87" y="640" type="curve" smooth="yes"/>
      <point x="87" y="618"/>
      <point x="91" y="606"/>
      <point x="98" y="594" type="curve"/>
      <point x="110" y="594" type="line"/>
      <point x="110" y="630"/>
      <point x="128" y="648"/>
      <point x="155" y="648" type="curve" smooth="yes"/>
      <point x="182" y="648"/>
      <point x="212" y="606"/>
      <point x="244" y="552" type="curve" smooth="yes"/>
    </contour>
    <contour>
      <point x="198" y="159" type="line"/>
      <point x="226" y="159" type="line"/>
      <point x="226" y="646" type="line"/>
      <point x="198" y="646" type="line"/>
    </contour>
    <contour>
      <point x="205" y="185" type="curve"/>
      <point x="110" y="185"/>
      <point x="45" y="125"/>
      <point x="45" y="47" type="curve" smooth="yes"/>
      <point x="45" y="0"/>
      <point x="88" y="-78"/>
      <point x="174" y="-78" type="curve" smooth="yes"/>
      <point x="181" y="-78"/>
      <point x="192" y="-75"/>
      <point x="199" y="-71" type="curve"/>
      <point x="199" y="-59" type="line"/>
      <point x="164" y="-59"/>
      <point x="134" y="-40"/>
      <point x="134" y="0" type="curve" smooth="yes"/>
      <point x="134" y="24"/>
      <point x="158" y="43"/>
      <point x="189" y="43" type="curve" smooth="yes"/>
      <point x="211" y="43"/>
      <point x="238" y="33"/>
      <point x="262" y="2" type="curve"/>
      <point x="269" y="2" type="line"/>
      <point x="397" y="144" type="line"/>
      <point x="390" y="151" type="line"/>
      <point x="355" y="114" type="line"/>
      <point x="329" y="144"/>
      <point x="267" y="185"/>
    </contour>
    <contour>
      <point x="150" y="278" type="curve"/>
      <point x="155" y="288" type="line"/>
      <point x="145" y="295"/>
      <point x="139" y="305"/>
      <point x="139" y="319" type="curve" smooth="yes"/>
      <point x="139" y="338"/>
      <point x="159" y="349"/>
      <point x="189" y="349" type="curve" smooth="yes"/>
      <point x="211" y="349" type="line"/>
      <point x="211" y="487" type="line"/>
      <point x="134" y="487"/>
      <point x="76" y="443"/>
      <point x="76" y="379" type="curve" smooth="yes"/>
      <point x="76" y="317"/>
      <point x="113" y="289"/>
    </contour>
  </outline>
</glyph>
<glyph name="Q" format="2">
  <advance width="780"/>
  <unicode hex="0051"/>
  <note>
Q
</note>
  <outline>
    <contour>
      <point x="405" y="684" type="line"/>
      <point x="531" y="620"/>
      <point x="645" y="462"/>
      <point x="645" y="322" type="curve" smooth="yes"/>
      <point x="645" y="181"/>
      <point x="555" y="82"/>
      <point x="450" y="82" type="curve" smooth="yes"/>
      <point x="271" y="82"/>
      <point x="179" y="246"/>
      <point x="179" y="446" type="curve" smooth="yes"/>
      <point x="179" y="569"/>
      <point x="235" y="689"/>
      <point x="341" y="768" type="curve"/>
      <point x="327" y="786" type="line"/>
      <point x="154" y="709"/>
      <point x="56" y="573"/>
      <point x="56" y="335" type="curve" smooth="yes"/>
      <point x="56" y="151"/>
      <point x="186" y="-30"/>
      <point x="375" y="-30" type="curve" smooth="yes"/>
      <point x="551" y="-30"/>
      <point x="749" y="223"/>
      <point x="749" y="422" type="curve" smooth="yes"/>
      <point x="749" y="574"/>
      <point x="656" y="710"/>
      <point x="518" y="765" type="curve"/>
      <point x="163" y="611" type="line"/>
      <point x="163" y="579" type="line"/>
    </contour>
    <contour>
      <point x="214" y="225" type="line"/>
      <point x="322" y="246"/>
      <point x="396" y="302"/>
      <point x="396" y="405" type="curve" smooth="yes"/>
      <point x="396" y="695" type="line"/>
      <point x="267" y="641" type="line"/>
      <point x="267" y="395" type="line" smooth="yes"/>
      <point x="267" y="328"/>
      <point x="252" y="287"/>
      <point x="201" y="254" type="curve"/>
    </contour>
    <contour>
      <point x="682" y="-106" type="curve"/>
      <point x="832" y="12" type="line"/>
      <point x="813" y="33" type="line"/>
      <point x="772" y="0" type="line"/>
      <point x="714" y="31"/>
      <point x="666" y="79"/>
      <point x="628" y="140" type="curve"/>
      <point x="527" y="44" type="line"/>
      <point x="566" y="-13"/>
      <point x="618" y="-72"/>
    </contour>
    <contour>
      <point x="450" y="59" type="line"/>
      <point x="480" y="59" type="line"/>
      <point x="480" y="678" type="line"/>
      <point x="450" y="678" type="line"/>
    </contour>
    <contour>
      <point x="463" y="374" type="line"/>
      <point x="633" y="459" type="line"/>
      <point x="633" y="490" type="line"/>
      <point x="463" y="406" type="line"/>
    </contour>
    <contour>
      <point x="463" y="269" type="line"/>
      <point x="667" y="372" type="line"/>
      <point x="667" y="403" type="line"/>
      <point x="463" y="301" type="line"/>
    </contour>
  </outline>
</glyph>
<glyph name="R" format="2">
  <advance width="820"/>
  <unicode hex="0052"/>
  <note>
R
</note>
  <outline>
    <contour>
      <point x="43.98" y="-25.49" type="curve"/>
      <point x="74.48" y="-25.49" type="line"/>
      <point x="105" y="19"/>
      <point x="156" y="53"/>
      <point x="225" y="53" type="curve" smooth="yes"/>
      <point x="290" y="53"/>
      <point x="349" y="34"/>
      <point x="406.48" y="-10.99" type="curve"/>
      <point x="563.73" y="113.22" type="line"/>
      <point x="580" y="59"/>
      <point x="610" y="14"/>
      <point x="658.98" y="-9.98" type="curve"/>
      <point x="811.98" y="111.52" type="line"/>
      <point x="798" y="131" type="line"/>
      <point x="743.41" y="89.02" type="line"/>
      <point x="691" y="137"/>
      <point x="687" y="175"/>
      <point x="659.74" y="280.02" type="curve" smooth="yes"/>
      <point x="641" y="353"/>
      <point x="596" y="412"/>
      <point x="529.89" y="444.59" type="curve"/>
      <point x="693.46" y="585.02" type="line"/>
      <point x="534.73" y="802.02" type="line"/>
      <point x="408.73" y="697.41" type="line"/>
      <point x="408.73" y="780.99" type="line"/>
      <point x="380.07" y="780.99" type="line"/>
      <point x="380.07" y="673.62" type="line"/>
      <point x="339.98" y="640.34" type="line"/>
      <point x="340" y="663" type="line" smooth="yes"/>
      <point x="340" y="739"/>
      <point x="303" y="789"/>
      <point x="226" y="789" type="curve" smooth="yes"/>
      <point x="155" y="789"/>
      <point x="91" y="741"/>
      <point x="90" y="664" type="curve"/>
      <point x="114.08" y="664.39" type="line"/>
      <point x="114" y="688"/>
      <point x="127" y="714"/>
      <point x="158" y="714" type="curve" smooth="yes"/>
      <point x="187" y="714"/>
      <point x="200" y="691"/>
      <point x="199.57" y="653" type="curve" smooth="yes"/>
      <point x="199.57" y="468.88" type="line"/>
      <point x="139" y="471"/>
      <point x="79" y="445"/>
      <point x="79" y="357" type="curve" smooth="yes"/>
      <point x="79" y="332"/>
      <point x="86" y="312"/>
      <point x="90.87" y="300" type="curve"/>
      <point x="110" y="300" type="line"/>
      <point x="110" y="349"/>
      <point x="128" y="358"/>
      <point x="200" y="358" type="curve"/>
      <point x="199.56" y="127.79" type="line"/>
      <point x="136" y="99"/>
      <point x="77" y="43"/>
    </contour>
    <contour>
      <point x="339.99" y="157.38" type="curve"/>
      <point x="339.99" y="606.16" type="line"/>
      <point x="380.08" y="640.97" type="line"/>
      <point x="380.08" y="152.9" type="line"/>
      <point x="366.84" y="155.32"/>
      <point x="353.44" y="156.82"/>
    </contour>
    <contour>
      <point x="408.74" y="146.16" type="curve"/>
      <point x="408.74" y="340.59" type="line"/>
      <point x="424.48" y="354.1" type="line"/>
      <point x="471" y="336"/>
      <point x="517" y="294"/>
      <point x="537" y="218" type="curve" smooth="yes"/>
      <point x="543" y="196"/>
      <point x="548" y="171"/>
      <point x="558.79" y="131.09" type="curve"/>
      <point x="510.74" y="93.04" type="line"/>
      <point x="480.83" y="117.48"/>
      <point x="445.85" y="135.47"/>
    </contour>
    <contour>
      <point x="408.74" y="375.64" type="line"/>
      <point x="408.74" y="665.84" type="line"/>
      <point x="439.47" y="692.53" type="line"/>
      <point x="566.47" y="512.03" type="line"/>
    </contour>
  </outline>
</glyph>
<glyph name="S" format="2">
  <advance width="670"/>
  <unicode hex="0053"/>
  <note>
S
</note>
  <outline>
    <contour>
      <point x="285.4" y="-187" type="curve" smooth="yes"/>
      <point x="421" y="-187"/>
      <point x="550" y="-113"/>
      <point x="581.86" y="12.15" type="curve"/>
      <point x="554.94" y="19.85" type="line"/>
      <point x="514" y="-82"/>
      <point x="429" y="-109"/>
      <point x="225" y="-109" type="curve" smooth="yes"/>
      <point x="182" y="-109"/>
      <point x="72" y="-85"/>
      <point x="73" y="21" type="curve" smooth="yes"/>
      <point x="73" y="29"/>
      <point x="73" y="36"/>
      <point x="74.77" y="43.58" type="curve"/>
      <point x="89" y="72"/>
      <point x="145" y="80"/>
      <point x="191.05" y="79.99" type="curve" smooth="yes"/>
      <point x="260" y="80"/>
      <point x="328" y="49"/>
      <point x="375.58" y="-3.84" type="curve"/>
      <point x="649.75" y="168.99" type="line"/>
      <point x="649.75" y="419.99" type="line"/>
      <point x="610" y="453"/>
      <point x="556" y="484"/>
      <point x="501.31" y="502.36" type="curve"/>
      <point x="606" y="594"/>
      <point x="668" y="668"/>
      <point x="668.46" y="800.95" type="curve"/>
      <point x="640.46" y="801.03" type="line"/>
      <point x="637" y="756"/>
      <point x="595" y="703"/>
      <point x="522" y="703" type="curve" smooth="yes"/>
      <point x="470" y="703"/>
      <point x="421" y="720"/>
      <point x="369.58" y="767.82" type="curve"/>
      <point x="95.4" y="595" type="line"/>
      <point x="95.4" y="394" type="line"/>
      <point x="235.23" y="302.61" type="line"/>
      <point x="130" y="209"/>
      <point x="45" y="127"/>
      <point x="45" y="17" type="curve" smooth="yes"/>
      <point x="45" y="-99"/>
      <point x="154" y="-187"/>
    </contour>
    <contour>
      <point x="132.61" y="158.48" type="curve"/>
      <point x="155" y="186"/>
      <point x="215" y="247"/>
      <point x="244.74" y="273.54" type="curve" smooth="yes"/>
      <point x="397.02" y="409.48" type="line"/>
      <point x="432.72" y="392.03" type="line"/>
      <point x="432.72" y="154.96" type="line"/>
      <point x="370" y="187"/>
      <point x="325" y="201"/>
      <point x="262" y="201" type="curve" smooth="yes"/>
      <point x="209" y="201"/>
      <point x="158.26" y="176.54"/>
    </contour>
    <contour>
      <point x="460.72" y="138.69" type="curve"/>
      <point x="460.72" y="378.35" type="line"/>
      <point x="518.75" y="349.99" type="line"/>
      <point x="518.75" y="119.99" type="line"/>
      <point x="499.75" y="110.99" type="line"/>
      <point x="487.25" y="120.9"/>
      <point x="474.21" y="130.16"/>
    </contour>
    <contour>
      <point x="226" y="468" type="line"/>
      <point x="226.42" y="643.99" type="line"/>
      <point x="245.42" y="652.99" type="line"/>
      <point x="257.15" y="644.92"/>
      <point x="269.27" y="637.41"/>
      <point x="281.72" y="630.51" type="curve"/>
      <point x="281.72" y="429.85" type="line"/>
    </contour>
    <contour>
      <point x="309.71" y="410.54" type="line"/>
      <point x="309.72" y="616.31" type="line"/>
      <point x="370" y="589"/>
      <point x="409" y="582"/>
      <point x="451" y="582" type="curve" smooth="yes"/>
      <point x="494" y="582"/>
      <point x="544" y="595"/>
      <point x="575.37" y="616.45" type="curve"/>
      <point x="551" y="583"/>
      <point x="484" y="525"/>
      <point x="459.09" y="502.43" type="curve" smooth="yes"/>
      <point x="335.91" y="392.47" type="line"/>
    </contour>
  </outline>
</glyph>
<glyph name="U" format="2">
  <advance width="836"/>
  <unicode hex="0055"/>
  <note>
U
</note>
  <outline>
    <contour>
      <point x="462" y="-12" type="curve"/>
      <point x="617" y="94" type="line"/>
      <point x="729" y="0" type="line"/>
      <point x="861" y="109" type="line"/>
      <point x="847" y="123" type="line"/>
      <point x="816" y="97" type="line"/>
      <point x="767" y="139" type="line"/>
      <point x="767" y="664" type="line"/>
      <point x="811" y="700" type="line"/>
      <point x="794" y="722" type="line"/>
      <point x="754" y="689" type="line"/>
      <point x="667" y="761" type="line"/>
      <point x="530" y="673" type="line"/>
      <point x="530" y="765" type="line"/>
      <point x="509" y="764" type="line"/>
      <point x="393" y="676"/>
      <point x="335" y="642"/>
      <point x="335" y="526" type="curve" smooth="yes"/>
      <point x="335" y="282" type="line"/>
      <point x="281" y="259" type="line"/>
      <point x="265" y="295"/>
      <point x="252" y="344"/>
      <point x="252" y="407" type="curve" smooth="yes"/>
      <point x="252" y="532"/>
      <point x="309" y="662"/>
      <point x="434" y="745" type="curve"/>
      <point x="414" y="768" type="line"/>
      <point x="386" y="748"/>
      <point x="352" y="729"/>
      <point x="330" y="729" type="curve" smooth="yes"/>
      <point x="293" y="729"/>
      <point x="247" y="763"/>
      <point x="203" y="763" type="curve" smooth="yes"/>
      <point x="142" y="763"/>
      <point x="88" y="701"/>
      <point x="51" y="632" type="curve"/>
      <point x="68" y="624" type="line"/>
      <point x="84" y="656"/>
      <point x="108" y="673"/>
      <point x="134" y="673" type="curve" smooth="yes"/>
      <point x="174" y="673"/>
      <point x="222" y="645"/>
      <point x="262" y="645" type="curve" smooth="yes"/>
      <point x="275" y="645"/>
      <point x="290" y="647"/>
      <point x="309" y="654" type="curve"/>
      <point x="181" y="589"/>
      <point x="115" y="467"/>
      <point x="115" y="333" type="curve" smooth="yes"/>
      <point x="115" y="151"/>
      <point x="270" y="-12"/>
    </contour>
    <contour>
      <point x="502" y="94" type="curve"/>
      <point x="412" y="98"/>
      <point x="335" y="155"/>
      <point x="292" y="235" type="curve"/>
      <point x="464" y="307" type="line"/>
      <point x="464" y="616" type="line" smooth="yes"/>
      <point x="464" y="665"/>
      <point x="479" y="709"/>
      <point x="502" y="727" type="curve"/>
      <point x="502" y="516"/>
      <point x="502" y="305"/>
    </contour>
    <contour>
      <point x="530" y="427" type="line"/>
      <point x="530" y="499"/>
      <point x="530" y="572"/>
      <point x="530" y="645" type="curve"/>
      <point x="573" y="671" type="line"/>
      <point x="628" y="610" type="line"/>
      <point x="628" y="476" type="line"/>
    </contour>
    <contour>
      <point x="530" y="322" type="line"/>
      <point x="530" y="395" type="line"/>
      <point x="628" y="444" type="line"/>
      <point x="628" y="371" type="line"/>
    </contour>
    <contour>
      <point x="530" y="94" type="line"/>
      <point x="530" y="290" type="line"/>
      <point x="628" y="339" type="line"/>
      <point x="628" y="150" type="line"/>
      <point x="545" y="95" type="line"/>
    </contour>
  </outline>
</glyph>
<glyph name="V" format="2">
  <advance width="741"/>
  <unicode hex="0056"/>
  <note>
V
</note>
  <outline>
    <contour>
      <point x="57.65" y="12.94" type="curve"/>
      <point x="76.65" y="12.94" type="line"/>
      <point x="119.79" y="46.3"/>
      <point x="174" y="65"/>
      <point x="228.65" y="64.99" type="curve" smooth="yes"/>
      <point x="296" y="65"/>
      <point x="363.6" y="36.19"/>
      <point x="410.09" y="-13.01" type="curve"/>
      <point x="731.09" y="230.99" type="line"/>
      <point x="712" y="261" type="line"/>
      <point x="673.16" y="231.48" type="line"/>
      <point x="673.05" y="674.16" type="line"/>
      <point x="732.54" y="721.99" type="line"/>
      <point x="714.9" y="743.74" type="line"/>
      <point x="672.01" y="708.96" type="line"/>
      <point x="574.7" y="800.64" type="line"/>
      <point x="414.21" y="664.21" type="line"/>
      <point x="414.21" y="778.47" type="line"/>
      <point x="385.55" y="778.47" type="line"/>
      <point x="385.55" y="639.84" type="line"/>
      <point x="343.55" y="604.14" type="line"/>
      <point x="344" y="656" type="line" smooth="yes"/>
      <point x="345" y="739"/>
      <point x="297" y="788"/>
      <point x="221" y="788" type="curve" smooth="yes"/>
      <point x="163" y="788"/>
      <point x="89" y="758"/>
      <point x="88.61" y="665.39" type="curve"/>
      <point x="112.55" y="665.39" type="line"/>
      <point x="113" y="689"/>
      <point x="139" y="711"/>
      <point x="160" y="711" type="curve" smooth="yes"/>
      <point x="190" y="711"/>
      <point x="203" y="691"/>
      <point x="203.11" y="650" type="curve" smooth="yes"/>
      <point x="203" y="478" type="line"/>
      <point x="125" y="477"/>
      <point x="79" y="420"/>
      <point x="79" y="355" type="curve" smooth="yes"/>
      <point x="79" y="341"/>
      <point x="81" y="329"/>
      <point x="84.53" y="316" type="curve"/>
      <point x="107" y="316" type="line"/>
      <point x="107" y="342"/>
      <point x="120" y="366"/>
      <point x="147.68" y="366.73" type="curve" smooth="yes"/>
      <point x="203.11" y="367.49" type="line"/>
      <point x="203.11" y="154.07" type="line"/>
      <point x="139.42" y="127.25"/>
      <point x="85.78" y="76.2"/>
    </contour>
    <contour>
      <point x="414.21" y="440.25" type="line"/>
      <point x="414.21" y="625.1" type="line"/>
      <point x="494.1" y="691.99" type="line"/>
      <point x="548.54" y="637.82" type="line"/>
      <point x="548.54" y="508.07" type="line"/>
    </contour>
    <contour>
      <point x="414.2" y="335.29" type="line"/>
      <point x="414.2" y="408.14" type="line"/>
      <point x="548.54" y="475.96" type="line"/>
      <point x="548.54" y="403.11" type="line"/>
    </contour>
    <contour>
      <point x="414.21" y="152.47" type="curve"/>
      <point x="414.21" y="303.18" type="line"/>
      <point x="548.54" y="371" type="line"/>
      <point x="548.54" y="133.83" type="line"/>
      <point x="499.6" y="95.48" type="line"/>
      <point x="475.16" y="119.8"/>
      <point x="445.93" y="139.03"/>
    </contour>
    <contour>
      <point x="343.55" y="172.07" type="curve"/>
      <point x="343.55" y="565.94" type="line"/>
      <point x="385.55" y="601.1" type="line"/>
      <point x="385.55" y="162.83" type="line"/>
      <point x="371.81" y="166.97"/>
      <point x="357.75" y="170.07"/>
    </contour>
  </outline>
</glyph>
<glyph name="W" format="2">
  <advance width="1001"/>
  <unicode hex="0057"/>
  <note>
W
</note>
  <outline>
    <contour>
      <point x="49" y="12.95" type="curve"/>
      <point x="68" y="12.95" type="line"/>
      <point x="110.35" y="47.57"/>
      <point x="165" y="65"/>
      <point x="220" y="65" type="curve" smooth="yes"/>
      <point x="281" y="65"/>
      <point x="340.33" y="36.84"/>
      <point x="382" y="-7.28" type="curve"/>
      <point x="516.25" y="102.65" type="line"/>
      <point x="687.98" y="-14.18" type="line"/>
      <point x="957.8" y="187.94" type="line"/>
      <point x="957.8" y="692.11" type="line"/>
      <point x="859.9" y="784.26" type="line"/>
      <point x="722.8" y="681.67" type="line"/>
      <point x="722.8" y="771.07" type="line"/>
      <point x="694.14" y="771.07" type="line"/>
      <point x="694.14" y="144.82" type="line"/>
      <point x="641.8" y="180.01" type="line"/>
      <point x="641.8" y="692.26" type="line"/>
      <point x="543.9" y="785.01" type="line"/>
      <point x="407.8" y="683.17" type="line"/>
      <point x="407.8" y="771.07" type="line"/>
      <point x="379.14" y="771.07" type="line"/>
      <point x="379.14" y="160.94" type="line"/>
      <point x="364.27" y="165.78"/>
      <point x="348.99" y="169.35"/>
      <point x="333.51" y="171.6" type="curve"/>
      <point x="333.51" y="509.94" type="line"/>
      <point x="334" y="617" type="line" smooth="yes"/>
      <point x="334" y="699"/>
      <point x="307" y="780"/>
      <point x="193" y="780" type="curve" smooth="yes"/>
      <point x="123" y="780"/>
      <point x="64" y="742"/>
      <point x="63.72" y="658.94" type="curve"/>
      <point x="88.72" y="658.94" type="line"/>
      <point x="94" y="685"/>
      <point x="116" y="706"/>
      <point x="142" y="706" type="curve" smooth="yes"/>
      <point x="176" y="706"/>
      <point x="194" y="681"/>
      <point x="194" y="641" type="curve" smooth="yes"/>
      <point x="194" y="472" type="line"/>
      <point x="134" y="472"/>
      <point x="62" y="440"/>
      <point x="62" y="360" type="curve" smooth="yes"/>
      <point x="62" y="332"/>
      <point x="71" y="314"/>
      <point x="78.34" y="301.1" type="curve"/>
      <point x="97.46" y="301.11" type="line"/>
      <point x="97" y="347"/>
      <point x="114" y="359"/>
      <point x="194" y="359" type="curve"/>
      <point x="194.49" y="154.51" type="line"/>
      <point x="130.51" y="127.95"/>
      <point x="76.66" y="76.6"/>
    </contour>
    <contour>
      <point x="407.81" y="149.77" type="curve"/>
      <point x="407.81" y="305.78" type="line"/>
      <point x="512.81" y="358.79" type="line"/>
      <point x="512.81" y="181.64" type="line"/>
      <point x="448.02" y="127" type="line"/>
      <point x="435.32" y="135.76"/>
      <point x="421.84" y="143.37"/>
    </contour>
    <contour>
      <point x="407.81" y="442.85" type="line"/>
      <point x="407.81" y="655.17" type="line"/>
      <point x="448.17" y="685.43" type="line"/>
      <point x="512.81" y="631.74" type="line"/>
      <point x="512.81" y="495.85" type="line"/>
    </contour>
    <contour>
      <point x="407.81" y="337.88" type="line"/>
      <point x="407.81" y="410.73" type="line"/>
      <point x="512.81" y="463.74" type="line"/>
      <point x="512.81" y="390.89" type="line"/>
    </contour>
    <contour>
      <point x="722.81" y="442.84" type="line"/>
      <point x="722.81" y="653.66" type="line"/>
      <point x="764.17" y="684.67" type="line"/>
      <point x="828.81" y="630.98" type="line"/>
      <point x="828.81" y="496.35" type="line"/>
    </contour>
    <contour>
      <point x="722.81" y="337.87" type="line"/>
      <point x="722.81" y="410.73" type="line"/>
      <point x="828.81" y="464.24" type="line"/>
      <point x="828.81" y="391.39" type="line"/>
    </contour>
    <contour>
      <point x="722.81" y="132.61" type="line"/>
      <point x="722.81" y="305.76" type="line"/>
      <point x="828.81" y="359.27" type="line"/>
      <point x="828.81" y="136.3" type="line"/>
      <point x="769.99" y="93.79" type="line"/>
      <point x="712.28" y="132.59" type="line"/>
    </contour>
  </outline>
</glyph>
<glyph name="Y" format="2">
  <advance width="714"/>
  <unicode hex="0059"/>
  <note>
Y
</note>
  <outline>
    <contour>
      <point x="122.69" y="231.5" type="curve"/>
      <point x="127.69" y="245.5" type="line"/>
      <point x="119" y="250"/>
      <point x="115" y="259"/>
      <point x="114.69" y="267.5" type="curve" smooth="yes"/>
      <point x="114" y="294"/>
      <point x="137" y="302"/>
      <point x="180.32" y="301.5" type="curve"/>
      <point x="180.32" y="69.25" type="line"/>
      <point x="145" y="56"/>
      <point x="84" y="12"/>
      <point x="84" y="-64" type="curve" smooth="yes"/>
      <point x="84" y="-148"/>
      <point x="147" y="-196"/>
      <point x="236" y="-196" type="curve" smooth="yes"/>
      <point x="300" y="-196"/>
      <point x="470" y="-154"/>
      <point x="517" y="-154" type="curve" smooth="yes"/>
      <point x="542" y="-154"/>
      <point x="574" y="-165"/>
      <point x="574" y="-193" type="curve" smooth="yes"/>
      <point x="574" y="-218"/>
      <point x="560" y="-231"/>
      <point x="540.51" y="-235.1" type="curve"/>
      <point x="545.29" y="-254.26" type="line"/>
      <point x="608" y="-244"/>
      <point x="664" y="-193"/>
      <point x="664" y="-133" type="curve" smooth="yes"/>
      <point x="664" y="-63"/>
      <point x="600" y="-28"/>
      <point x="522" y="-28" type="curve" smooth="yes"/>
      <point x="382" y="-28"/>
      <point x="297" y="-76"/>
      <point x="237.34" y="-75.28" type="curve" smooth="yes"/>
      <point x="185" y="-75"/>
      <point x="153" y="-56"/>
      <point x="153" y="-14" type="curve" smooth="yes"/>
      <point x="153" y="32"/>
      <point x="203" y="53"/>
      <point x="264" y="53" type="curve" smooth="yes"/>
      <point x="334" y="53"/>
      <point x="463" y="10"/>
      <point x="543" y="10" type="curve" smooth="yes"/>
      <point x="621" y="10"/>
      <point x="656" y="74"/>
      <point x="656" y="141" type="curve" smooth="yes"/>
      <point x="655.62" y="622.74" type="line"/>
      <point x="706.51" y="664.01" type="line"/>
      <point x="688.87" y="685.76" type="line"/>
      <point x="651.39" y="655.36" type="line"/>
      <point x="549.99" y="742.76" type="line"/>
      <point x="414.28" y="632.89" type="line"/>
      <point x="414.28" y="733.34" type="line"/>
      <point x="385.62" y="733.34" type="line"/>
      <point x="385.62" y="57.17" type="line"/>
      <point x="320.74" y="72.91" type="line"/>
      <point x="320.74" y="604.01" type="line" smooth="yes"/>
      <point x="321" y="678"/>
      <point x="278" y="738"/>
      <point x="206" y="738" type="curve" smooth="yes"/>
      <point x="130" y="738"/>
      <point x="74" y="689"/>
      <point x="70.89" y="613.4" type="curve"/>
      <point x="94.83" y="613.4" type="line"/>
      <point x="99" y="635"/>
      <point x="119" y="662"/>
      <point x="138" y="662" type="curve" smooth="yes"/>
      <point x="165" y="662"/>
      <point x="180" y="648"/>
      <point x="180" y="602" type="curve" smooth="yes"/>
      <point x="180.33" y="436.68" type="line"/>
      <point x="103" y="436"/>
      <point x="51" y="387"/>
      <point x="51" y="321" type="curve" smooth="yes"/>
      <point x="51" y="282"/>
      <point x="81" y="241"/>
    </contour>
    <contour>
      <point x="414.29" y="54.27" type="curve"/>
      <point x="414.3" y="289.27" type="line"/>
      <point x="427.33" y="298.56"/>
      <point x="443.01" y="304.17"/>
      <point x="459" y="304.98" type="curve" smooth="yes"/>
      <point x="479.63" y="306.03"/>
      <point x="500.51" y="299"/>
      <point x="516.53" y="286.01" type="curve"/>
      <point x="517" y="198" type="line" smooth="yes"/>
      <point x="517" y="117"/>
      <point x="495" y="54"/>
    </contour>
    <contour>
      <point x="414.29" y="436.27" type="curve"/>
      <point x="414.29" y="597.81" type="line"/>
      <point x="462.5" y="635.77" type="line"/>
      <point x="516.53" y="594.21" type="line"/>
      <point x="516.53" y="439.54" type="line"/>
      <point x="500.5" y="426.54"/>
      <point x="479.63" y="419.51"/>
      <point x="459" y="420.56" type="curve" smooth="yes"/>
      <point x="443.01" y="421.38"/>
      <point x="427.33" y="426.98"/>
    </contour>
    <contour>
      <point x="414.3" y="318.39" type="curve"/>
      <point x="414.29" y="407.17" type="line"/>
      <point x="427.68" y="397.91"/>
      <point x="443.71" y="392.43"/>
      <point x="460" y="391.81" type="curve" smooth="yes"/>
      <point x="480.24" y="391.04"/>
      <point x="500.62" y="397.86"/>
      <point x="516.53" y="410.36" type="curve"/>
      <point x="516.53" y="315.2" type="line"/>
      <point x="500.62" y="327.7"/>
      <point x="480.24" y="334.52"/>
      <point x="460" y="333.75" type="curve" smooth="yes"/>
      <point x="443.72" y="333.13"/>
      <point x="427.69" y="327.65"/>
    </contour>
  </outline>
</glyph>
<glyph name="Z" format="2">
  <advance width="671"/>
  <unicode hex="005A"/>
  <note>
Z
</note>
  <outline>
    <contour>
      <point x="61.99" y="-0.2" type="line"/>
      <point x="128" y="42"/>
      <point x="203" y="57"/>
      <point x="269" y="57" type="curve" smooth="yes"/>
      <point x="351" y="57"/>
      <point x="463" y="28"/>
      <point x="539.39" y="-1.45" type="curve"/>
      <point x="662.87" y="157.97" type="line"/>
      <point x="648.49" y="167.56" type="line"/>
      <point x="619.73" y="134.01" type="line"/>
      <point x="553.71" y="163.45"/>
      <point x="458" y="191"/>
      <point x="359" y="191" type="curve" smooth="yes"/>
      <point x="309" y="191"/>
      <point x="248.58" y="186.78"/>
      <point x="171.1" y="164.01" type="curve"/>
      <point x="231" y="244"/>
      <point x="269" y="287"/>
      <point x="308.5" y="330" type="curve"/>
      <point x="466" y="330" type="line"/>
      <point x="550.65" y="457" type="line"/>
      <point x="423" y="457" type="line"/>
      <point x="508" y="540"/>
      <point x="583" y="636"/>
      <point x="633.78" y="744" type="curve"/>
      <point x="615.99" y="763.9" type="line"/>
      <point x="565" y="735"/>
      <point x="480" y="716"/>
      <point x="401" y="716" type="curve" smooth="yes"/>
      <point x="364" y="716"/>
      <point x="278" y="724"/>
      <point x="146.8" y="772.3" type="curve"/>
      <point x="46" y="586.5" type="line"/>
      <point x="65.17" y="576.91" type="line"/>
      <point x="102.24" y="631.25" type="line"/>
      <point x="177.26" y="601.53"/>
      <point x="272" y="580"/>
      <point x="338" y="580" type="curve" smooth="yes"/>
      <point x="398" y="580"/>
      <point x="457.79" y="581.13"/>
      <point x="516.63" y="592.48" type="curve"/>
      <point x="468" y="532"/>
      <point x="435" y="498"/>
      <point x="393.24" y="457" type="curve"/>
      <point x="245.63" y="457" type="line"/>
      <point x="161.91" y="330" type="line"/>
      <point x="277.1" y="330" type="line"/>
      <point x="190" y="233"/>
      <point x="108" y="124"/>
      <point x="52.4" y="9.38" type="curve"/>
    </contour>
  </outline>
</glyph>
<glyph name="asciicircum" format="2">
  <advance width="564"/>
  <unicode hex="005E"/>
  <note>
asciicircum
</note>
  <outline>
    <contour>
      <point x="248.2" y="663.54" type="line"/>
      <point x="41.31" y="454.3" type="line"/>
      <point x="43.04" y="506" type="line"/>
      <point x="308.69" y="775.52" type="line"/>
      <point x="316.14" y="769.78" type="line"/>
      <point x="317.66" y="768.38" type="line"/>
      <point x="543.64" y="559.96" type="line"/>
      <point x="476.31" y="454.29" type="line"/>
      <point x="468.86" y="460.03" type="line"/>
    </contour>
  </outline>
</glyph>
<glyph name="a" format="2">
  <advance width="490"/>
  <unicode hex="0061"/>
  <note>
a
</note>
  <outline>
    <contour>
      <point x="173" y="-5" type="curve"/>
      <point x="279" y="72" type="line"/>
      <point x="355" y="-5" type="line"/>
      <point x="494" y="91" type="line"/>
      <point x="490" y="110" type="line"/>
      <point x="447" y="81" type="line"/>
      <point x="399" y="129" type="line"/>
      <point x="399" y="381" type="line"/>
      <point x="451" y="424" type="line"/>
      <point x="433" y="445" type="line"/>
      <point x="393" y="413" type="line"/>
      <point x="245" y="508" type="line"/>
      <point x="135" y="450" type="line" smooth="yes"/>
      <point x="101" y="432"/>
      <point x="72" y="410"/>
      <point x="72" y="368" type="curve" smooth="yes"/>
      <point x="72" y="323"/>
      <point x="113" y="290"/>
      <point x="158" y="273" type="curve"/>
      <point x="99" y="242"/>
      <point x="38" y="190"/>
      <point x="38" y="128" type="curve" smooth="yes"/>
      <point x="38" y="63"/>
      <point x="96" y="4"/>
    </contour>
    <contour>
      <point x="274" y="266" type="curve"/>
      <point x="182" y="286"/>
      <point x="105" y="316"/>
      <point x="101" y="374" type="curve" smooth="yes"/>
      <point x="101" y="401"/>
      <point x="122" y="425"/>
      <point x="149" y="436" type="curve"/>
      <point x="274" y="359" type="line"/>
      <point x="274" y="328"/>
      <point x="274" y="297"/>
    </contour>
    <contour>
      <point x="252" y="81" type="curve" smooth="yes"/>
      <point x="196" y="81"/>
      <point x="158" y="152"/>
      <point x="158" y="203" type="curve" smooth="yes"/>
      <point x="158" y="219"/>
      <point x="166" y="254"/>
      <point x="176" y="267" type="curve"/>
      <point x="196" y="259"/>
      <point x="248" y="243"/>
      <point x="274" y="237" type="curve"/>
      <point x="274" y="84" type="line"/>
      <point x="267" y="82"/>
      <point x="260" y="81"/>
    </contour>
  </outline>
</glyph>
<glyph name="b" format="2">
  <advance width="458"/>
  <unicode hex="0062"/>
  <note>
b
</note>
  <outline>
    <contour>
      <point x="18" y="67" type="line"/>
      <point x="56" y="91" type="line"/>
      <point x="206" y="0" type="line"/>
      <point x="310" y="59" type="line"/>
      <point x="310" y="83" type="line"/>
      <point x="146" y="178" type="line"/>
      <point x="4" y="86" type="line"/>
    </contour>
    <contour>
      <point x="70" y="120" type="line"/>
      <point x="204" y="120" type="line"/>
      <point x="205" y="768" type="line"/>
      <point x="186" y="768" type="line"/>
      <point x="22" y="652" type="line"/>
      <point x="22" y="637" type="line"/>
      <point x="52" y="629"/>
      <point x="71" y="616"/>
      <point x="71" y="584" type="curve" smooth="yes"/>
    </contour>
    <contour>
      <point x="189" y="396" type="line"/>
      <point x="247" y="434" type="line"/>
      <point x="309" y="370" type="line"/>
      <point x="310" y="83" type="line"/>
      <point x="310" y="59" type="line"/>
      <point x="433" y="127" type="line"/>
      <point x="433" y="424" type="line"/>
      <point x="329" y="520" type="line"/>
      <point x="172" y="417" type="line"/>
    </contour>
  </outline>
</glyph>
<glyph name="c" format="2">
  <advance width="367"/>
  <unicode hex="0063"/>
  <note>
c
</note>
  <outline>
    <contour>
      <point x="204.83" y="0" type="line"/>
      <point x="53.83" y="102.88" type="line"/>
      <point x="53.83" y="401.88" type="line"/>
      <point x="154" y="458" type="line"/>
      <point x="182" y="458" type="line"/>
      <point x="182.33" y="174" type="line"/>
      <point x="205" y="132"/>
      <point x="248" y="106"/>
      <point x="295.33" y="105" type="curve"/>
      <point x="353" y="146.67" type="line"/>
      <point x="366" y="129.17" type="line"/>
      <point x="218.83" y="0" type="line"/>
    </contour>
    <contour>
      <point x="154" y="458" type="line"/>
      <point x="260" y="517" type="line"/>
      <point x="366" y="432" type="line"/>
      <point x="271" y="360" type="line"/>
    </contour>
  </outline>
</glyph>
<glyph name="f" format="2">
  <advance width="331"/>
  <unicode hex="0066"/>
  <note>
f
</note>
  <outline>
    <contour>
      <point x="78" y="96" type="line"/>
      <point x="78" y="635" type="line"/>
      <point x="182" y="692" type="line"/>
      <point x="206" y="692" type="line"/>
      <point x="206" y="96" type="line"/>
    </contour>
    <contour>
      <point x="182" y="692" type="line"/>
      <point x="305" y="762" type="line"/>
      <point x="438" y="679" type="line"/>
      <point x="315" y="610" type="line"/>
    </contour>
    <contour>
      <point x="12" y="442" type="line"/>
      <point x="78" y="513" type="line"/>
      <point x="333" y="513" type="line"/>
      <point x="273" y="442" type="line"/>
    </contour>
    <contour>
      <point x="30" y="67" type="line"/>
      <point x="14" y="85" type="line"/>
      <point x="151" y="173" type="line"/>
      <point x="263" y="72" type="line"/>
      <point x="297" y="90" type="line"/>
      <point x="308" y="72" type="line"/>
      <point x="173" y="0" type="line"/>
      <point x="68" y="90" type="line"/>
    </contour>
  </outline>
</glyph>
<glyph name="h" format="2">
  <advance width="526"/>
  <unicode hex="0068"/>
  <note>
h
</note>
  <outline>
    <contour>
      <point x="43" y="78" type="line"/>
      <point x="83" y="102" type="line"/>
      <point x="156" y="0" type="line"/>
      <point x="309" y="100" type="line"/>
      <point x="294" y="121" type="line"/>
      <point x="262" y="101" type="line"/>
      <point x="189" y="203" type="line"/>
      <point x="26" y="102" type="line"/>
    </contour>
    <contour>
      <point x="94" y="120" type="line"/>
      <point x="228" y="120" type="line"/>
      <point x="229" y="768" type="line"/>
      <point x="210" y="768" type="line"/>
      <point x="46" y="652" type="line"/>
      <point x="46" y="637" type="line"/>
      <point x="76" y="629"/>
      <point x="95" y="616"/>
      <point x="95" y="584" type="curve" smooth="yes"/>
    </contour>
    <contour>
      <point x="202" y="343" type="line"/>
      <point x="285" y="415" type="line"/>
      <point x="385" y="329" type="line"/>
      <point x="516" y="437" type="line"/>
      <point x="497" y="455" type="line"/>
      <point x="458" y="424" type="line"/>
      <point x="356" y="513" type="line"/>
      <point x="185" y="364" type="line"/>
    </contour>
    <contour>
      <point x="233" y="-111" type="line"/>
      <point x="247" y="-113"/>
      <point x="260" y="-114"/>
      <point x="272" y="-114" type="curve" smooth="yes"/>
      <point x="400" y="-114"/>
      <point x="473" y="-13"/>
      <point x="473" y="138" type="curve" smooth="yes"/>
      <point x="473" y="413" type="line"/>
      <point x="343" y="413" type="line"/>
      <point x="343" y="128" type="line" smooth="yes"/>
      <point x="343" y="25"/>
      <point x="325" y="-68"/>
      <point x="233" y="-87" type="curve"/>
    </contour>
  </outline>
</glyph>
<glyph name="i" format="2">
  <advance width="309"/>
  <unicode hex="0069"/>
  <note>
i
</note>
  <outline>
    <contour>
      <point x="151.42" y="550.56" type="line"/>
      <point x="246.93" y="634.42" type="line"/>
      <point x="161.7" y="731.49" type="line"/>
      <point x="66.18" y="647.63" type="line"/>
    </contour>
    <contour>
      <point x="56" y="55" type="line"/>
      <point x="90" y="79" type="line"/>
      <point x="183" y="-7" type="line"/>
      <point x="326" y="93" type="line"/>
      <point x="304" y="117" type="line"/>
      <point x="260" y="86" type="line"/>
      <point x="186" y="176" type="line"/>
      <point x="39" y="78" type="line"/>
    </contour>
    <contour>
      <point x="98" y="120" type="line"/>
      <point x="222" y="120" type="line"/>
      <point x="223" y="419" type="line"/>
      <point x="150" y="513" type="line"/>
      <point x="13" y="423" type="line"/>
      <point x="30" y="401" type="line"/>
      <point x="65" y="423" type="line"/>
      <point x="98" y="384" type="line"/>
    </contour>
  </outline>
</glyph>
<glyph name="j" format="2">
  <advance width="267"/>
  <unicode hex="006A"/>
  <note>
j
</note>
  <outline>
    <contour>
      <point x="133" y="551" type="line"/>
      <point x="229" y="634" type="line"/>
      <point x="144" y="731" type="line"/>
      <point x="48" y="648" type="line"/>
    </contour>
    <contour>
      <point x="8" y="401" type="line"/>
      <point x="45" y="426" type="line"/>
      <point x="115" y="340" type="line"/>
      <point x="246" y="440" type="line"/>
      <point x="228" y="463" type="line"/>
      <point x="192" y="434" type="line"/>
      <point x="126" y="513" type="line"/>
      <point x="-7" y="422" type="line"/>
    </contour>
    <contour>
      <point x="2" y="-178" type="line"/>
      <point x="92" y="-178"/>
      <point x="204" y="-128"/>
      <point x="204" y="43" type="curve" smooth="yes"/>
      <point x="204" y="426" type="line"/>
      <point x="79" y="426" type="line"/>
      <point x="79" y="0" type="line" smooth="yes"/>
      <point x="79" y="-94"/>
      <point x="70" y="-144"/>
      <point x="2" y="-152" type="curve"/>
    </contour>
  </outline>
</glyph>
<glyph name="k" format="2">
  <advance width="557"/>
  <unicode hex="006B"/>
  <note>
k
</note>
  <outline>
    <contour>
      <point x="37" y="78" type="line"/>
      <point x="77" y="102" type="line"/>
      <point x="150" y="0" type="line"/>
      <point x="303" y="100" type="line"/>
      <point x="288" y="121" type="line"/>
      <point x="256" y="101" type="line"/>
      <point x="183" y="203" type="line"/>
      <point x="20" y="102" type="line"/>
    </contour>
    <contour>
      <point x="81" y="120" type="line"/>
      <point x="215" y="120" type="line"/>
      <point x="216" y="768" type="line"/>
      <point x="197" y="768" type="line"/>
      <point x="33" y="652" type="line"/>
      <point x="33" y="637" type="line"/>
      <point x="63" y="629"/>
      <point x="82" y="616"/>
      <point x="82" y="584" type="curve" smooth="yes"/>
    </contour>
    <contour>
      <point x="587" y="91" type="line"/>
      <point x="567" y="115" type="line"/>
      <point x="524" y="86" type="line"/>
      <point x="324" y="378" type="line"/>
      <point x="337" y="398" type="line"/>
      <point x="363" y="373"/>
      <point x="394" y="364"/>
      <point x="420" y="364" type="curve" smooth="yes"/>
      <point x="496" y="364"/>
      <point x="535" y="437"/>
      <point x="543" y="508" type="curve"/>
      <point x="524" y="508" type="line"/>
      <point x="513" y="488"/>
      <point x="492" y="470"/>
      <point x="460" y="470" type="curve" smooth="yes"/>
      <point x="436" y="470"/>
      <point x="409" y="481"/>
      <point x="395" y="508" type="curve"/>
      <point x="385" y="508" type="line"/>
      <point x="237" y="278" type="line"/>
      <point x="433" y="-10" type="line"/>
    </contour>
  </outline>
</glyph>
<glyph name="m" format="2">
  <advance width="781"/>
  <unicode hex="006D"/>
  <note>
m
</note>
  <outline>
    <contour>
      <point x="401" y="-17" type="line"/>
      <point x="506" y="73" type="line"/>
      <point x="401" y="168" type="line"/>
      <point x="296" y="73" type="line"/>
    </contour>
    <contour>
      <point x="339" y="74" type="line"/>
      <point x="455" y="74" type="line"/>
      <point x="456" y="403" type="line"/>
      <point x="339" y="406" type="line"/>
    </contour>
    <contour>
      <point x="174" y="-21" type="line"/>
      <point x="269" y="73" type="line"/>
      <point x="164" y="168" type="line"/>
      <point x="59" y="73" type="line"/>
    </contour>
    <contour>
      <point x="96" y="90" type="line"/>
      <point x="228" y="90" type="line"/>
      <point x="229" y="419" type="line"/>
      <point x="144" y="513" type="line"/>
      <point x="4" y="414" type="line"/>
      <point x="21" y="392" type="line"/>
      <point x="59" y="418" type="line"/>
      <point x="96" y="373" type="line"/>
    </contour>
    <contour>
      <point x="218" y="390" type="line"/>
      <point x="267" y="420" type="line"/>
      <point x="367" y="331" type="line"/>
      <point x="510" y="421" type="line"/>
      <point x="600" y="337" type="line"/>
      <point x="741" y="422" type="line"/>
      <point x="722" y="446" type="line"/>
      <point x="688" y="421" type="line"/>
      <point x="588" y="513" type="line"/>
      <point x="448" y="422" type="line"/>
      <point x="343" y="513" type="line"/>
      <point x="203" y="416" type="line"/>
    </contour>
    <contour>
      <point x="638" y="-14" type="line"/>
      <point x="787" y="86" type="line"/>
      <point x="770" y="109" type="line"/>
      <point x="736" y="86" type="line"/>
      <point x="648" y="170" type="line"/>
      <point x="534" y="73" type="line"/>
    </contour>
    <contour>
      <point x="575" y="80" type="line"/>
      <point x="691" y="80" type="line"/>
      <point x="692" y="403" type="line"/>
      <point x="575" y="403" type="line"/>
    </contour>
  </outline>
</glyph>
<glyph name="n" format="2">
  <advance width="557"/>
  <unicode hex="006E"/>
  <note>
n
</note>
  <outline>
    <contour>
      <point x="174" y="-17" type="line"/>
      <point x="269" y="77" type="line"/>
      <point x="164" y="172" type="line"/>
      <point x="59" y="77" type="line"/>
    </contour>
    <contour>
      <point x="96" y="90" type="line"/>
      <point x="228" y="90" type="line"/>
      <point x="229" y="419" type="line"/>
      <point x="144" y="513" type="line"/>
      <point x="4" y="414" type="line"/>
      <point x="21" y="392" type="line"/>
      <point x="59" y="418" type="line"/>
      <point x="96" y="373" type="line"/>
    </contour>
    <contour>
      <point x="219" y="384" type="line"/>
      <point x="267" y="420" type="line"/>
      <point x="371" y="329" type="line"/>
      <point x="504" y="420" type="line"/>
      <point x="480" y="447" type="line"/>
      <point x="438" y="416" type="line"/>
      <point x="333" y="513" type="line"/>
      <point x="201" y="408" type="line"/>
    </contour>
    <contour>
      <point x="405" y="-14" type="line"/>
      <point x="554" y="86" type="line"/>
      <point x="537" y="109" type="line"/>
      <point x="500" y="85" type="line"/>
      <point x="415" y="164" type="line"/>
      <point x="304" y="80" type="line"/>
    </contour>
    <contour>
      <point x="339" y="80" type="line"/>
      <point x="454" y="80" type="line"/>
      <point x="455" y="403" type="line"/>
      <point x="339" y="403" type="line"/>
    </contour>
  </outline>
</glyph>
<glyph name="o" format="2">
  <advance width="472"/>
  <unicode hex="006F"/>
  <note>
o
</note>
  <outline>
    <contour>
      <point x="214" y="0" type="line"/>
      <point x="310" y="59" type="line"/>
      <point x="317" y="71" type="line"/>
      <point x="195" y="153" type="line"/>
      <point x="195" y="464" type="line"/>
      <point x="65" y="388" type="line"/>
      <point x="65" y="131" type="line"/>
      <point x="14" y="89" type="line"/>
      <point x="32" y="68" type="line"/>
      <point x="73" y="101" type="line"/>
    </contour>
    <contour>
      <point x="310" y="59" type="line"/>
      <point x="434" y="133" type="line"/>
      <point x="434" y="406" type="line"/>
      <point x="290" y="517" type="line"/>
      <point x="195" y="464" type="line"/>
      <point x="188" y="446" type="line"/>
      <point x="310" y="363" type="line"/>
    </contour>
  </outline>
</glyph>
<glyph name="p" format="2">
  <advance width="480"/>
  <unicode hex="0070"/>
  <note>
p
</note>
  <outline>
    <contour>
      <point x="88" y="-174" type="line"/>
      <point x="107" y="-174" type="line"/>
      <point x="250" y="-88" type="line"/>
      <point x="250" y="-74" type="line"/>
      <point x="214" y="-65"/>
      <point x="204" y="-38"/>
      <point x="204" y="0" type="curve" smooth="yes"/>
      <point x="204" y="439" type="line"/>
      <point x="189" y="468"/>
      <point x="164" y="496"/>
      <point x="136" y="513" type="curve"/>
      <point x="15" y="432" type="line"/>
      <point x="26" y="416" type="line"/>
      <point x="32" y="421"/>
      <point x="41" y="424"/>
      <point x="49" y="424" type="curve" smooth="yes"/>
      <point x="71" y="424"/>
      <point x="90" y="403"/>
      <point x="88" y="380" type="curve"/>
    </contour>
    <contour>
      <point x="1227" y="191" type="curve"/>
      <point x="1227" y="462" type="line"/>
      <point x="1270" y="496" type="line"/>
      <point x="1336" y="441" type="line"/>
      <point x="1336" y="144" type="line"/>
      <point x="1313" y="155"/>
      <point x="1251" y="183"/>
    </contour>
    <contour>
      <point x="1111" y="-99" type="line"/>
      <point x="1130" y="-99" type="line"/>
      <point x="1273" y="-13" type="line"/>
      <point x="1273" y="1" type="line"/>
      <point x="1237" y="10"/>
      <point x="1227" y="37"/>
      <point x="1227" y="75" type="curve" smooth="yes"/>
      <point x="1227" y="117" type="line"/>
      <point x="1250" y="107"/>
      <point x="1273" y="96"/>
      <point x="1294" y="83" type="curve"/>
      <point x="1346" y="127"/>
      <point x="1400" y="164"/>
      <point x="1460" y="199" type="curve"/>
      <point x="1460" y="477" type="line"/>
      <point x="1498" y="507" type="line"/>
      <point x="1480" y="529" type="line"/>
      <point x="1450" y="504" type="line"/>
      <point x="1353" y="590" type="line"/>
      <point x="1227" y="495" type="line"/>
      <point x="1227" y="514" type="line"/>
      <point x="1212" y="543"/>
      <point x="1187" y="571"/>
      <point x="1159" y="588" type="curve"/>
      <point x="1038" y="507" type="line"/>
      <point x="1049" y="491" type="line"/>
      <point x="1055" y="496"/>
      <point x="1064" y="499"/>
      <point x="1072" y="499" type="curve" smooth="yes"/>
      <point x="1094" y="499"/>
      <point x="1113" y="478"/>
      <point x="1111" y="455" type="curve"/>
      <point x="1111" y="205" type="line"/>
      <point x="1059" y="162" type="line"/>
      <point x="1077" y="160"/>
      <point x="1094" y="157"/>
      <point x="1111" y="154" type="curve"/>
    </contour>
    <contour>
      <point x="179" y="400" type="line"/>
      <point x="179" y="367" type="line"/>
      <point x="247" y="421" type="line"/>
      <point x="342" y="336" type="line"/>
      <point x="475" y="432" type="line"/>
      <point x="457" y="454" type="line"/>
      <point x="427" y="429" type="line"/>
      <point x="330" y="515" type="line"/>
    </contour>
    <contour>
      <point x="271" y="7" type="curve"/>
      <point x="323" y="51"/>
      <point x="377" y="88"/>
      <point x="437" y="123" type="curve"/>
      <point x="437" y="409" type="line"/>
      <point x="313" y="409" type="line"/>
      <point x="313" y="68" type="line"/>
      <point x="245" y="103"/>
      <point x="164" y="125"/>
      <point x="88" y="129" type="curve"/>
      <point x="36" y="86" type="line"/>
      <point x="104" y="78"/>
      <point x="208" y="46"/>
    </contour>
  </outline>
</glyph>
<glyph name="q" format="2">
  <advance width="477"/>
  <unicode hex="0071"/>
  <note>
q
</note>
  <outline>
    <contour>
      <point x="355" y="334" type="line"/>
      <point x="165" y="447" type="line"/>
      <point x="287" y="516" type="line"/>
      <point x="437" y="425" type="line"/>
      <point x="475" y="449" type="line"/>
      <point x="490" y="431" type="line"/>
    </contour>
    <contour>
      <point x="424" y="404" type="line"/>
      <point x="424" y="15" type="line" smooth="yes"/>
      <point x="424" y="-15"/>
      <point x="438" y="-34"/>
      <point x="473" y="-43" type="curve"/>
      <point x="473" y="-56" type="line"/>
      <point x="308" y="-171" type="line"/>
      <point x="289" y="-171" type="line"/>
      <point x="289" y="404" type="line"/>
    </contour>
    <contour>
      <point x="163" y="-4" type="line"/>
      <point x="61" y="92" type="line"/>
      <point x="61" y="388" type="line"/>
      <point x="165" y="447" type="line"/>
      <point x="184" y="447" type="line"/>
      <point x="184" y="145" type="line"/>
      <point x="244" y="82" type="line"/>
      <point x="314" y="129" type="line"/>
      <point x="314" y="96" type="line"/>
    </contour>
  </outline>
</glyph>
<glyph name="r" format="2">
  <advance width="399"/>
  <unicode hex="0072"/>
  <note>
r
</note>
  <outline>
    <contour>
      <point x="55" y="55" type="line"/>
      <point x="88" y="79" type="line"/>
      <point x="197" y="0" type="line"/>
      <point x="345" y="104" type="line"/>
      <point x="326" y="125" type="line"/>
      <point x="274" y="88" type="line"/>
      <point x="176" y="174" type="line"/>
      <point x="37" y="75" type="line"/>
    </contour>
    <contour>
      <point x="102" y="100" type="line"/>
      <point x="234" y="100" type="line"/>
      <point x="235" y="419" type="line"/>
      <point x="150" y="513" type="line"/>
      <point x="13" y="423" type="line"/>
      <point x="30" y="401" type="line"/>
      <point x="68" y="425" type="line"/>
      <point x="101" y="384" type="line"/>
    </contour>
    <contour>
      <point x="322" y="372" type="curve" smooth="yes"/>
      <point x="401" y="372"/>
      <point x="423" y="481"/>
      <point x="423" y="514" type="curve"/>
      <point x="392" y="513" type="line"/>
      <point x="388" y="500"/>
      <point x="373" y="488"/>
      <point x="348" y="488" type="curve" smooth="yes"/>
      <point x="332" y="488"/>
      <point x="314" y="494"/>
      <point x="307" y="513" type="curve"/>
      <point x="290" y="513" type="line"/>
      <point x="213" y="421" type="line"/>
      <point x="235" y="400"/>
      <point x="283" y="372"/>
    </contour>
  </outline>
</glyph>
<glyph name="u" format="2">
  <advance width="508"/>
  <unicode hex="0075"/>
  <note>
u
</note>
  <outline>
    <contour>
      <point x="333.29" y="123.66" type="line"/>
      <point x="339" y="46"/>
      <point x="357" y="5"/>
      <point x="411.33" y="-1.99" type="curve"/>
      <point x="530" y="82" type="line"/>
      <point x="515" y="102" type="line"/>
      <point x="475.67" y="75.01" type="line"/>
      <point x="454" y="89"/>
      <point x="449" y="113"/>
      <point x="449" y="143" type="curve" smooth="yes"/>
      <point x="448.15" y="424.08" type="line"/>
      <point x="333" y="424" type="line"/>
    </contour>
    <contour>
      <point x="182" y="189" type="line"/>
      <point x="71" y="109" type="line"/>
      <point x="208" y="-4" type="line"/>
      <point x="365" y="117" type="line"/>
      <point x="351" y="134" type="line"/>
      <point x="285" y="87" type="line"/>
    </contour>
    <contour>
      <point x="97" y="119" type="line"/>
      <point x="221" y="119" type="line"/>
      <point x="222" y="416" type="line" smooth="yes"/>
      <point x="222" y="470"/>
      <point x="175" y="513"/>
      <point x="142" y="513" type="curve"/>
      <point x="12" y="422" type="line"/>
      <point x="29" y="400" type="line"/>
      <point x="42" y="412"/>
      <point x="60" y="425"/>
      <point x="72" y="425" type="curve" smooth="yes"/>
      <point x="88" y="425"/>
      <point x="97" y="415"/>
      <point x="97" y="390" type="curve" smooth="yes"/>
    </contour>
    <contour>
      <point x="375" y="513" type="line"/>
      <point x="282" y="427" type="line"/>
      <point x="363" y="358" type="line"/>
      <point x="493" y="458" type="line"/>
      <point x="479" y="475" type="line"/>
      <point x="440" y="452" type="line"/>
    </contour>
  </outline>
</glyph>
<glyph name="v" format="2">
  <advance width="514"/>
  <unicode hex="0076"/>
  <note>
v
</note>
  <outline>
    <contour>
      <point x="94" y="87" type="line"/>
      <point x="218" y="87" type="line"/>
      <point x="218" y="358" type="line" smooth="yes"/>
      <point x="218" y="500"/>
      <point x="98" y="471"/>
      <point x="98" y="548" type="curve" smooth="yes"/>
      <point x="98" y="570"/>
      <point x="110" y="588"/>
      <point x="138" y="598" type="curve"/>
      <point x="141.55" y="598.93" type="line"/>
      <point x="136.66" y="617.99" type="line"/>
      <point x="69" y="612"/>
      <point x="4" y="562"/>
      <point x="4.01" y="499.73" type="curve" smooth="yes"/>
      <point x="4" y="415"/>
      <point x="94" y="435"/>
      <point x="94" y="302" type="curve" smooth="yes"/>
    </contour>
    <contour>
      <point x="397" y="333" type="line"/>
      <point x="498" y="425" type="line"/>
      <point x="396" y="513" type="line"/>
      <point x="293" y="425" type="line"/>
    </contour>
    <contour>
      <point x="336" y="67" type="line"/>
      <point x="368" y="67" type="line"/>
      <point x="460" y="119" type="line"/>
      <point x="460" y="423" type="line"/>
      <point x="336" y="423" type="line"/>
    </contour>
    <contour>
      <point x="229" y="-15" type="line"/>
      <point x="368" y="67" type="line"/>
      <point x="368" y="101" type="line"/>
      <point x="310" y="65" type="line"/>
      <point x="161" y="160" type="line"/>
      <point x="50" y="65" type="line"/>
      <point x="66" y="45" type="line"/>
      <point x="97" y="70" type="line"/>
    </contour>
  </outline>
</glyph>
<glyph name="w" format="2">
  <advance width="716"/>
  <unicode hex="0077"/>
  <note>
w
</note>
  <outline>
    <contour>
      <point x="95" y="101" type="line"/>
      <point x="220" y="101" type="line"/>
      <point x="220" y="346" type="line" smooth="yes"/>
      <point x="220" y="506"/>
      <point x="100" y="469"/>
      <point x="100" y="547" type="curve" smooth="yes"/>
      <point x="100" y="575"/>
      <point x="117" y="591"/>
      <point x="143" y="599" type="curve"/>
      <point x="138" y="618" type="line"/>
      <point x="71" y="613"/>
      <point x="6" y="563"/>
      <point x="6" y="500" type="curve" smooth="yes"/>
      <point x="6" y="417"/>
      <point x="95" y="429"/>
      <point x="95" y="316" type="curve" smooth="yes"/>
    </contour>
    <contour>
      <point x="212" y="-18" type="line"/>
      <point x="382" y="82" type="line"/>
      <point x="317" y="82" type="line"/>
      <point x="297" y="69" type="line"/>
      <point x="162" y="165" type="line"/>
      <point x="49" y="65" type="line"/>
      <point x="69" y="43" type="line"/>
      <point x="97" y="69" type="line"/>
    </contour>
    <contour>
      <point x="433" y="-13" type="line"/>
      <point x="589" y="69" type="line"/>
      <point x="570" y="97" type="line"/>
      <point x="523" y="70" type="line"/>
      <point x="443" y="123" type="line"/>
      <point x="443" y="421" type="line"/>
      <point x="317" y="421" type="line"/>
      <point x="317" y="82" type="line"/>
    </contour>
    <contour>
      <point x="378" y="333" type="line"/>
      <point x="479" y="425" type="line"/>
      <point x="377" y="513" type="line"/>
      <point x="274" y="425" type="line"/>
    </contour>
    <contour>
      <point x="577" y="354" type="line"/>
      <point x="726" y="471" type="line"/>
      <point x="708" y="494" type="line"/>
      <point x="665" y="459" type="line"/>
      <point x="601" y="513" type="line"/>
      <point x="498" y="425" type="line"/>
    </contour>
    <contour>
      <point x="544" y="70" type="line"/>
      <point x="589" y="69" type="line"/>
      <point x="668" y="108" type="line"/>
      <point x="668" y="442" type="line"/>
      <point x="544" y="442" type="line"/>
    </contour>
  </outline>
</glyph>
<glyph name="y" format="2">
  <advance width="518"/>
  <unicode hex="0079"/>
  <note>
y
</note>
  <outline>
    <contour>
      <point x="95" y="100" type="line"/>
      <point x="241" y="0" type="line"/>
      <point x="352" y="78" type="line"/>
      <point x="216" y="163" type="line"/>
      <point x="217" y="418" type="line"/>
      <point x="139" y="513" type="line"/>
      <point x="5" y="419" type="line"/>
      <point x="20" y="399" type="line"/>
      <point x="57" y="425" type="line"/>
      <point x="95" y="381" type="line"/>
    </contour>
    <contour>
      <point x="62" y="-154" type="line"/>
      <point x="81" y="-140"/>
      <point x="102" y="-128"/>
      <point x="134" y="-128" type="curve" smooth="yes"/>
      <point x="185" y="-128"/>
      <point x="223" y="-157"/>
      <point x="240" y="-184" type="curve"/>
      <point x="425" y="-53" type="line" smooth="yes"/>
      <point x="466" y="-24"/>
      <point x="494" y="-5"/>
      <point x="494" y="20" type="curve" smooth="yes"/>
      <point x="494" y="50"/>
      <point x="465" y="60"/>
      <point x="465" y="139" type="curve" smooth="yes"/>
      <point x="465" y="405" type="line"/>
      <point x="374" y="513" type="line"/>
      <point x="278" y="447" type="line"/>
      <point x="333" y="378" type="line"/>
      <point x="333" y="61" type="line" smooth="yes"/>
      <point x="333" y="31"/>
      <point x="368" y="-19"/>
      <point x="368" y="-41" type="curve" smooth="yes"/>
      <point x="368" y="-66"/>
      <point x="352" y="-86"/>
      <point x="331" y="-86" type="curve"/>
      <point x="298" y="-52"/>
      <point x="249" y="-34"/>
      <point x="201" y="-34" type="curve" smooth="yes"/>
      <point x="135" y="-34"/>
      <point x="72" y="-81"/>
      <point x="48" y="-144" type="curve"/>
    </contour>
  </outline>
</glyph>
<glyph name="z" format="2">
  <advance width="432"/>
  <unicode hex="007A"/>
  <note>
z
</note>
  <outline>
    <contour>
      <point x="24" y="0" type="curve"/>
      <point x="14" y="9" type="line"/>
      <point x="39" y="88"/>
      <point x="81" y="147"/>
      <point x="140" y="216" type="curve"/>
      <point x="72" y="216" type="line"/>
      <point x="48" y="192" type="line"/>
      <point x="34" y="206" type="line"/>
      <point x="115" y="302" type="line"/>
      <point x="216" y="302" type="line"/>
      <point x="283" y="378" type="line"/>
      <point x="247" y="367"/>
      <point x="219" y="364"/>
      <point x="189" y="364" type="curve" smooth="yes"/>
      <point x="155" y="364"/>
      <point x="95" y="375"/>
      <point x="62" y="393" type="curve"/>
      <point x="38" y="355" type="line"/>
      <point x="19" y="364" type="line"/>
      <point x="96" y="508" type="line"/>
      <point x="132" y="492"/>
      <point x="204" y="470"/>
      <point x="261" y="470" type="curve" smooth="yes"/>
      <point x="296" y="470"/>
      <point x="342" y="476"/>
      <point x="393" y="508" type="curve"/>
      <point x="403" y="494" type="line"/>
      <point x="362" y="423"/>
      <point x="345" y="402"/>
      <point x="259" y="302" type="curve"/>
      <point x="332" y="302" type="line"/>
      <point x="355" y="326" type="line"/>
      <point x="369" y="311" type="line"/>
      <point x="288" y="215" type="line"/>
      <point x="183" y="215" type="line"/>
      <point x="115" y="134" type="line"/>
      <point x="144" y="144"/>
      <point x="182" y="150"/>
      <point x="213" y="150" type="curve" smooth="yes"/>
      <point x="283" y="150"/>
      <point x="335" y="132"/>
      <point x="379" y="110" type="curve"/>
      <point x="407" y="144" type="line"/>
      <point x="422" y="134" type="line"/>
      <point x="316" y="5" type="line"/>
      <point x="287" y="19"/>
      <point x="220" y="43"/>
      <point x="151" y="43" type="curve" smooth="yes"/>
      <point x="118" y="43"/>
      <point x="80" y="36"/>
    </contour>
  </outline>
</glyph>
<glyph name="currency" format="2">
  <advance width="503"/>
  <unicode hex="00A4"/>
  <note>
currency
</note>
  <outline>
    <contour>
      <point x="310.66" y="76.49" type="line"/>
      <point x="195.62" y="153.19" type="line"/>
      <point x="195.62" y="440.8" type="line"/>
      <point x="310.66" y="364.1" type="line"/>
    </contour>
    <contour>
      <point x="15.02" y="89.46" type="line"/>
      <point x="32.64" y="67.7" type="line"/>
      <point x="74.2" y="101.4" type="line"/>
      <point x="214.8" y="-0.2" type="line"/>
      <point x="418.34" y="123.69" type="line"/>
      <point x="472.13" y="80.07" type="line"/>
      <point x="489.77" y="101.82" type="line"/>
      <point x="435.31" y="145.99" type="line"/>
      <point x="435.31" y="397.21" type="line"/>
      <point x="477.94" y="431.78" type="line"/>
      <point x="460.3" y="453.53" type="line"/>
      <point x="418.82" y="419.89" type="line"/>
      <point x="291.5" y="517.5" type="line"/>
      <point x="87.31" y="400.2" type="line"/>
      <point x="28.48" y="447.91" type="line"/>
      <point x="10.84" y="426.16" type="line"/>
      <point x="66.21" y="381.26" type="line"/>
      <point x="66.21" y="297.83"/>
      <point x="66.21" y="214.4"/>
      <point x="66.21" y="130.97" type="curve"/>
    </contour>
  </outline>
</glyph>
<glyph name="yen" format="2">
  <advance width="684"/>
  <unicode hex="00A5"/>
  <note>
yen
</note>
  <outline>
    <contour>
      <point x="85.7" y="231.48" type="curve"/>
      <point x="90.69" y="245.5" type="line"/>
      <point x="83.16" y="250.16"/>
      <point x="78.17" y="258.66"/>
      <point x="77.69" y="267.5" type="curve" smooth="yes"/>
      <point x="77.39" y="273.1"/>
      <point x="78.82" y="278.77"/>
      <point x="81.65" y="283.62" type="curve" smooth="yes"/>
      <point x="84.48" y="288.47"/>
      <point x="88.68" y="292.47"/>
      <point x="93.53" y="295.29" type="curve" smooth="yes"/>
      <point x="98.38" y="298.12"/>
      <point x="103.84" y="299.79"/>
      <point x="109.39" y="300.63" type="curve" smooth="yes"/>
      <point x="114.94" y="301.47"/>
      <point x="120.58" y="301.5"/>
      <point x="126.19" y="301.5" type="curve" smooth="yes"/>
      <point x="131.9" y="301.5"/>
      <point x="137.62" y="301.5"/>
      <point x="143.33" y="301.5" type="curve"/>
      <point x="143.33" y="69.25" type="line"/>
      <point x="138.66" y="67.38"/>
      <point x="134.06" y="65.3"/>
      <point x="129.57" y="63" type="curve" smooth="yes"/>
      <point x="99.86" y="47.84"/>
      <point x="74.6" y="23.45"/>
      <point x="60.14" y="-6.61" type="curve" smooth="yes"/>
      <point x="45.67" y="-36.67"/>
      <point x="42.56" y="-72.25"/>
      <point x="52.76" y="-104" type="curve" smooth="yes"/>
      <point x="59.44" y="-124.8"/>
      <point x="71.66" y="-143.77"/>
      <point x="87.73" y="-158.58" type="curve" smooth="yes"/>
      <point x="103.79" y="-173.39"/>
      <point x="123.58" y="-183.96"/>
      <point x="144.58" y="-190" type="curve" smooth="yes"/>
      <point x="179.51" y="-200.06"/>
      <point x="216.81" y="-197.63"/>
      <point x="252.72" y="-191.99" type="curve" smooth="yes"/>
      <point x="288.63" y="-186.34"/>
      <point x="324.17" y="-178.56"/>
      <point x="360.01" y="-172.5" type="curve" smooth="yes"/>
      <point x="396.21" y="-166.38"/>
      <point x="432.02" y="-157.46"/>
      <point x="468.57" y="-154" type="curve" smooth="yes"/>
      <point x="483.14" y="-152.62"/>
      <point x="498.35" y="-153.06"/>
      <point x="511.66" y="-159.15" type="curve" smooth="yes"/>
      <point x="518.31" y="-162.2"/>
      <point x="524.36" y="-166.67"/>
      <point x="528.88" y="-172.43" type="curve" smooth="yes"/>
      <point x="533.4" y="-178.19"/>
      <point x="536.32" y="-185.21"/>
      <point x="537.01" y="-192.5" type="curve" smooth="yes"/>
      <point x="537.78" y="-200.58"/>
      <point x="535.79" y="-208.87"/>
      <point x="531.56" y="-215.79" type="curve" smooth="yes"/>
      <point x="527.34" y="-222.72"/>
      <point x="520.97" y="-228.28"/>
      <point x="513.63" y="-231.75" type="curve" smooth="yes"/>
      <point x="510.41" y="-233.27"/>
      <point x="507.01" y="-234.4"/>
      <point x="503.52" y="-235.1" type="curve"/>
      <point x="508.3" y="-254.26" type="line"/>
      <point x="521.02" y="-251.93"/>
      <point x="533.48" y="-248.16"/>
      <point x="545.35" y="-243" type="curve" smooth="yes"/>
      <point x="573.61" y="-230.72"/>
      <point x="598.9" y="-210.2"/>
      <point x="613.46" y="-183.04" type="curve" smooth="yes"/>
      <point x="620.74" y="-169.46"/>
      <point x="625.2" y="-154.32"/>
      <point x="625.96" y="-138.93" type="curve" smooth="yes"/>
      <point x="626.72" y="-123.54"/>
      <point x="623.74" y="-107.97"/>
      <point x="617.26" y="-94" type="curve" smooth="yes"/>
      <point x="610.63" y="-79.7"/>
      <point x="600.38" y="-67.16"/>
      <point x="588.01" y="-57.39" type="curve" smooth="yes"/>
      <point x="575.64" y="-47.62"/>
      <point x="561.22" y="-40.6"/>
      <point x="546.14" y="-35.98" type="curve" smooth="yes"/>
      <point x="515.99" y="-26.74"/>
      <point x="483.8" y="-26.74"/>
      <point x="452.35" y="-29" type="curve" smooth="yes"/>
      <point x="409.69" y="-32.06"/>
      <point x="367.34" y="-38.89"/>
      <point x="325.61" y="-48.25" type="curve" smooth="yes"/>
      <point x="283.88" y="-57.61"/>
      <point x="243.05" y="-72.87"/>
      <point x="200.35" y="-75.28" type="curve" smooth="yes"/>
      <point x="180.27" y="-76.41"/>
      <point x="159.23" y="-73.53"/>
      <point x="142.44" y="-62.45" type="curve" smooth="yes"/>
      <point x="134.05" y="-56.91"/>
      <point x="126.92" y="-49.37"/>
      <point x="122.26" y="-40.45" type="curve" smooth="yes"/>
      <point x="117.6" y="-31.53"/>
      <point x="115.5" y="-21.3"/>
      <point x="116.34" y="-11.27" type="curve" smooth="yes"/>
      <point x="117.25" y="-0.5"/>
      <point x="121.53" y="9.89"/>
      <point x="128.07" y="18.49" type="curve" smooth="yes"/>
      <point x="134.61" y="27.09"/>
      <point x="143.3" y="33.94"/>
      <point x="152.84" y="39.02" type="curve" smooth="yes"/>
      <point x="175.3" y="50.96"/>
      <point x="201.64" y="53.49"/>
      <point x="227.07" y="52.68" type="curve" smooth="yes"/>
      <point x="252.5" y="51.87"/>
      <point x="277.71" y="47.8"/>
      <point x="302.71" y="43.07" type="curve" smooth="yes"/>
      <point x="352.71" y="33.61"/>
      <point x="401.9" y="19.86"/>
      <point x="452.25" y="12.52" type="curve" smooth="yes"/>
      <point x="473.35" y="9.45"/>
      <point x="494.83" y="7.82"/>
      <point x="516" y="10.39" type="curve" smooth="yes"/>
      <point x="537.17" y="12.96"/>
      <point x="558.04" y="20.04"/>
      <point x="575.18" y="32.71" type="curve" smooth="yes"/>
      <point x="592.33" y="45.38"/>
      <point x="605.21" y="63.57"/>
      <point x="612" y="83.78" type="curve" smooth="yes"/>
      <point x="618.79" y="103.99"/>
      <point x="619.37" y="125.69"/>
      <point x="619.34" y="147.01" type="curve" smooth="yes"/>
      <point x="619.13" y="287.01" type="line"/>
      <point x="665.55" y="287.01" type="line"/>
      <point x="665.55" y="315.67" type="line"/>
      <point x="619.09" y="315.67" type="line"/>
      <point x="619.01" y="367.01" type="line"/>
      <point x="665.55" y="367.01" type="line"/>
      <point x="665.55" y="395.67" type="line"/>
      <point x="618.97" y="395.67" type="line"/>
      <point x="618.63" y="622.73" type="line"/>
      <point x="669.52" y="664" type="line"/>
      <point x="651.88" y="685.75" type="line"/>
      <point x="614.4" y="655.35" type="line"/>
      <point x="513" y="742.75" type="line"/>
      <point x="377.29" y="632.88" type="line"/>
      <point x="377.29" y="733.33" type="line"/>
      <point x="348.63" y="733.33" type="line"/>
      <point x="348.63" y="620.77"/>
      <point x="348.63" y="508.22"/>
      <point x="348.63" y="395.66" type="curve"/>
      <point x="283.75" y="395.66" type="line"/>
      <point x="283.75" y="603.99" type="line" smooth="yes"/>
      <point x="283.75" y="619.56"/>
      <point x="283.55" y="635.23"/>
      <point x="280.5" y="650.5" type="curve" smooth="yes"/>
      <point x="277.45" y="665.77"/>
      <point x="271.56" y="680.54"/>
      <point x="262.58" y="693.26" type="curve" smooth="yes"/>
      <point x="253.6" y="705.98"/>
      <point x="241.65" y="716.55"/>
      <point x="228.04" y="724.11" type="curve" smooth="yes"/>
      <point x="214.43" y="731.66"/>
      <point x="199.23" y="736.24"/>
      <point x="183.76" y="737.99" type="curve" smooth="yes"/>
      <point x="158.86" y="740.81"/>
      <point x="133.24" y="736.41"/>
      <point x="110.5" y="725.88" type="curve" smooth="yes"/>
      <point x="87.76" y="715.35"/>
      <point x="67.9" y="698.51"/>
      <point x="54.26" y="677.49" type="curve" smooth="yes"/>
      <point x="41.91" y="658.45"/>
      <point x="34.77" y="636.06"/>
      <point x="33.9" y="613.38" type="curve"/>
      <point x="57.84" y="613.38" type="line"/>
      <point x="59.34" y="621.71"/>
      <point x="62.35" y="629.77"/>
      <point x="66.76" y="636.99" type="curve" smooth="yes"/>
      <point x="73.32" y="647.72"/>
      <point x="83.35" y="656.74"/>
      <point x="95.48" y="660.05" type="curve" smooth="yes"/>
      <point x="101.55" y="661.7"/>
      <point x="108.04" y="661.86"/>
      <point x="114.13" y="660.3" type="curve" smooth="yes"/>
      <point x="120.22" y="658.74"/>
      <point x="125.85" y="655.47"/>
      <point x="130.26" y="650.99" type="curve" smooth="yes"/>
      <point x="136.36" y="644.8"/>
      <point x="139.98" y="636.49"/>
      <point x="141.67" y="627.96" type="curve" smooth="yes"/>
      <point x="143.36" y="619.44"/>
      <point x="143.34" y="610.68"/>
      <point x="143.34" y="601.99" type="curve" smooth="yes"/>
      <point x="143.34" y="436.66" type="line"/>
      <point x="129.07" y="437.53"/>
      <point x="114.66" y="435.99"/>
      <point x="100.91" y="432.07" type="curve" smooth="yes"/>
      <point x="81.71" y="426.6"/>
      <point x="63.81" y="416.48"/>
      <point x="49.41" y="402.65" type="curve" smooth="yes"/>
      <point x="26.1" y="380.27"/>
      <point x="12.45" y="347.49"/>
      <point x="15.41" y="315.32" type="curve" smooth="yes"/>
      <point x="17.19" y="295.98"/>
      <point x="24.86" y="277.18"/>
      <point x="37.31" y="262.27" type="curve" smooth="yes"/>
      <point x="49.76" y="247.36"/>
      <point x="66.92" y="236.43"/>
    </contour>
    <contour>
      <point x="377.31" y="54.25" type="curve"/>
      <point x="377.31" y="131.82"/>
      <point x="377.31" y="209.4"/>
      <point x="377.31" y="286.99" type="curve"/>
      <point x="411.39" y="286.99"/>
      <point x="445.47" y="286.99"/>
      <point x="479.55" y="286.99" type="curve"/>
      <point x="479.55" y="197.99" type="line" smooth="yes"/>
      <point x="479.55" y="170.62"/>
      <point x="479.46" y="142.58"/>
      <point x="469.99" y="116.9" type="curve" smooth="yes"/>
      <point x="465.25" y="104.06"/>
      <point x="458.17" y="92.02"/>
      <point x="448.71" y="82.13" type="curve" smooth="yes"/>
      <point x="439.25" y="72.24"/>
      <point x="427.46" y="64.61"/>
      <point x="414.58" y="59.99" type="curve" smooth="yes"/>
      <point x="402.62" y="55.7"/>
      <point x="390.02" y="54.1"/>
    </contour>
    <contour>
      <point x="377.31" y="597.8" type="curve"/>
      <point x="425.52" y="635.75" type="line"/>
      <point x="479.55" y="594.19" type="line"/>
      <point x="479.55" y="528.02"/>
      <point x="479.55" y="461.84"/>
      <point x="479.55" y="395.67" type="curve"/>
      <point x="445.47" y="395.67"/>
      <point x="411.39" y="395.67"/>
      <point x="377.31" y="395.67" type="curve"/>
      <point x="377.31" y="463.05"/>
      <point x="377.31" y="530.42"/>
    </contour>
    <contour>
      <point x="348.65" y="57.17" type="curve"/>
      <point x="345.54" y="57.72"/>
      <point x="342.46" y="58.34"/>
      <point x="339.39" y="59.01" type="curve" smooth="yes"/>
      <point x="320.74" y="63.07"/>
      <point x="302.31" y="68.37"/>
      <point x="283.77" y="72.91" type="curve"/>
      <point x="283.77" y="287.01" type="line"/>
      <point x="305.4" y="287.01"/>
      <point x="327.02" y="287.01"/>
      <point x="348.65" y="287.01" type="curve"/>
      <point x="348.65" y="210.4"/>
      <point x="348.65" y="133.78"/>
    </contour>
    <contour>
      <point x="283.77" y="315.67" type="line"/>
      <point x="283.77" y="367.01" type="line"/>
      <point x="348.65" y="367.01" type="line"/>
      <point x="348.65" y="315.67" type="line"/>
    </contour>
    <contour>
      <point x="377.31" y="315.67" type="curve"/>
      <point x="377.31" y="367.01" type="line"/>
      <point x="411.39" y="367.01"/>
      <point x="445.47" y="367.01"/>
      <point x="479.55" y="367.01" type="curve"/>
      <point x="479.55" y="315.67" type="line"/>
      <point x="445.47" y="315.67"/>
      <point x="411.39" y="315.67"/>
    </contour>
  </outline>
</glyph>
<glyph name="brokenbar" format="2">
  <advance width="164"/>
  <unicode hex="00A6"/>
  <note>
brokenbar
</note>
  <outline>
    <contour>
      <point x="136" y="493" type="line"/>
      <point x="29" y="395.85" type="line"/>
      <point x="29" y="694.85" type="line"/>
      <point x="136" y="792" type="line"/>
    </contour>
    <contour>
      <point x="136" y="92" type="line"/>
      <point x="29" y="-5.15" type="line"/>
      <point x="29" y="293.85" type="line"/>
      <point x="136" y="391" type="line"/>
    </contour>
  </outline>
</glyph>
<glyph name="section" format="2">
  <advance width="670"/>
  <unicode hex="00A7"/>
  <note>
section
</note>
  <outline>
    <contour>
      <point x="369.58" y="767.82" type="curve"/>
      <point x="95.4" y="595" type="line"/>
      <point x="95.4" y="394" type="line"/>
      <point x="235.23" y="302.61" type="line"/>
      <point x="226.08" y="294.44" type="line" smooth="yes"/>
      <point x="210.99" y="280.97"/>
      <point x="196.13" y="267.24"/>
      <point x="181.75" y="253.02" type="curve" smooth="yes"/>
      <point x="157.31" y="228.85"/>
      <point x="133.42" y="204.05"/>
      <point x="111.64" y="177.46" type="curve" smooth="yes"/>
      <point x="89.86" y="150.87"/>
      <point x="70.42" y="121.92"/>
      <point x="58.3" y="89.75" type="curve" smooth="yes"/>
      <point x="47.27" y="60.5"/>
      <point x="42.62" y="28.71"/>
      <point x="46.17" y="-2.35" type="curve" smooth="yes"/>
      <point x="49.72" y="-33.41"/>
      <point x="61.4" y="-63.44"/>
      <point x="79.4" y="-89" type="curve" smooth="yes"/>
      <point x="102.11" y="-121.24"/>
      <point x="134.51" y="-146.13"/>
      <point x="170.5" y="-162.24" type="curve" smooth="yes"/>
      <point x="206.49" y="-178.35"/>
      <point x="245.97" y="-186.09"/>
      <point x="285.4" y="-187" type="curve" smooth="yes"/>
      <point x="347.27" y="-188.43"/>
      <point x="409.85" y="-173.46"/>
      <point x="463.05" y="-141.84" type="curve" smooth="yes"/>
      <point x="516.25" y="-110.22"/>
      <point x="559.24" y="-60.28"/>
      <point x="578.01" y="-1.31" type="curve" smooth="yes"/>
      <point x="579.43" y="3.14"/>
      <point x="580.71" y="7.63"/>
      <point x="581.86" y="12.15" type="curve"/>
      <point x="554.94" y="19.85" type="line"/>
      <point x="553.91" y="15.3"/>
      <point x="552.63" y="10.8"/>
      <point x="551.09" y="6.39" type="curve" smooth="yes"/>
      <point x="542.84" y="-17.35"/>
      <point x="527.17" y="-38.25"/>
      <point x="507.55" y="-53.95" type="curve" smooth="yes"/>
      <point x="487.92" y="-69.65"/>
      <point x="464.62" y="-80.31"/>
      <point x="440.53" y="-87.48" type="curve" smooth="yes"/>
      <point x="392.34" y="-101.82"/>
      <point x="341.58" y="-104.82"/>
      <point x="291.41" y="-108" type="curve" smooth="yes"/>
      <point x="257.39" y="-110.15"/>
      <point x="222.96" y="-111.6"/>
      <point x="189.44" y="-105.43" type="curve" smooth="yes"/>
      <point x="155.92" y="-99.27"/>
      <point x="123.17" y="-83.95"/>
      <point x="101.31" y="-57.8" type="curve" smooth="yes"/>
      <point x="85.84" y="-39.3"/>
      <point x="76.33" y="-16.02"/>
      <point x="73.82" y="7.96" type="curve" smooth="yes"/>
      <point x="72.58" y="19.82"/>
      <point x="73" y="31.79"/>
      <point x="74.77" y="43.58" type="curve"/>
      <point x="77.55" y="49.21"/>
      <point x="81.85" y="54.07"/>
      <point x="86.89" y="57.85" type="curve" smooth="yes"/>
      <point x="92.86" y="62.34"/>
      <point x="99.8" y="65.4"/>
      <point x="106.91" y="67.7" type="curve" smooth="yes"/>
      <point x="133.94" y="76.44"/>
      <point x="162.65" y="79.21"/>
      <point x="191.05" y="79.99" type="curve" smooth="yes"/>
      <point x="214.66" y="80.64"/>
      <point x="238.36" y="77.46"/>
      <point x="260.91" y="70.45" type="curve" smooth="yes"/>
      <point x="304.9" y="56.77"/>
      <point x="344.57" y="30.24"/>
      <point x="375.58" y="-3.84" type="curve"/>
      <point x="649.75" y="168.99" type="line"/>
      <point x="649.75" y="419.99" type="line"/>
      <point x="626.77" y="438.98"/>
      <point x="601.95" y="455.75"/>
      <point x="575.75" y="469.99" type="curve" smooth="yes"/>
      <point x="551.94" y="482.93"/>
      <point x="527" y="493.77"/>
      <point x="501.31" y="502.36" type="curve"/>
      <point x="534.47" y="531.53"/>
      <point x="567.54" y="560.91"/>
      <point x="594.78" y="595.56" type="curve" smooth="yes"/>
      <point x="629.1" y="639.23"/>
      <point x="655.13" y="690.36"/>
      <point x="665.12" y="745.01" type="curve" smooth="yes"/>
      <point x="667.65" y="758.83"/>
      <point x="668.38" y="772.91"/>
      <point x="668.42" y="786.95" type="curve" smooth="yes"/>
      <point x="668.46" y="800.95" type="line"/>
      <point x="655.42" y="800.99" type="line"/>
      <point x="655.42" y="800.99" type="line"/>
      <point x="654.63" y="800.99" type="line"/>
      <point x="640.46" y="801.03" type="line"/>
      <point x="640.46" y="800.99" type="line"/>
      <point x="640.42" y="800.99" type="line" smooth="yes"/>
      <point x="639.24" y="786.62"/>
      <point x="634.87" y="772.53"/>
      <point x="627.75" y="759.99" type="curve" smooth="yes"/>
      <point x="613.32" y="734.56"/>
      <point x="587.62" y="716.42"/>
      <point x="559.44" y="708.6" type="curve" smooth="yes"/>
      <point x="531.26" y="700.77"/>
      <point x="501" y="702.46"/>
      <point x="472.75" y="709.99" type="curve" smooth="yes"/>
      <point x="434.29" y="720.24"/>
      <point x="398.83" y="740.82"/>
    </contour>
    <contour>
      <point x="432.72" y="392.03" type="line"/>
      <point x="432.72" y="154.96" type="line"/>
      <point x="415.32" y="164.22"/>
      <point x="397.29" y="172.28"/>
      <point x="378.75" y="178.99" type="curve" smooth="yes"/>
      <point x="327.73" y="197.45"/>
      <point x="272" y="205.43"/>
      <point x="218.75" y="194.99" type="curve" smooth="yes"/>
      <point x="187.93" y="188.95"/>
      <point x="158.26" y="176.54"/>
      <point x="132.61" y="158.48" type="curve"/>
      <point x="133.44" y="159.5"/>
      <point x="134.27" y="160.52"/>
      <point x="135.11" y="161.54" type="curve" smooth="yes"/>
      <point x="155.79" y="186.64"/>
      <point x="178.3" y="210.17"/>
      <point x="201.41" y="233.05" type="curve" smooth="yes"/>
      <point x="215.46" y="246.96"/>
      <point x="229.99" y="260.37"/>
      <point x="244.74" y="273.54" type="curve" smooth="yes"/>
      <point x="397.02" y="409.48" type="line"/>
    </contour>
    <contour>
      <point x="460.72" y="138.69" type="curve"/>
      <point x="460.72" y="378.35" type="line"/>
      <point x="518.75" y="349.99" type="line"/>
      <point x="518.75" y="119.99" type="line"/>
      <point x="499.75" y="110.99" type="line"/>
      <point x="487.25" y="120.9"/>
      <point x="474.21" y="130.16"/>
    </contour>
    <contour>
      <point x="281.72" y="630.51" type="curve"/>
      <point x="281.72" y="429.85" type="line"/>
      <point x="226.42" y="467.99" type="line"/>
      <point x="226.42" y="643.99" type="line"/>
      <point x="245.42" y="652.99" type="line"/>
      <point x="257.15" y="644.92"/>
      <point x="269.27" y="637.41"/>
    </contour>
    <contour>
      <point x="309.71" y="410.54" type="line"/>
      <point x="309.72" y="616.31" type="line"/>
      <point x="325.01" y="609.25"/>
      <point x="340.71" y="603.11"/>
      <point x="356.75" y="597.99" type="curve" smooth="yes"/>
      <point x="408.33" y="581.51"/>
      <point x="464.51" y="575.76"/>
      <point x="516.75" y="589.99" type="curve" smooth="yes"/>
      <point x="537.5" y="595.64"/>
      <point x="557.41" y="604.61"/>
      <point x="575.37" y="616.45" type="curve"/>
      <point x="574.58" y="615.42"/>
      <point x="573.78" y="614.39"/>
      <point x="572.98" y="613.36" type="curve" smooth="yes"/>
      <point x="540.3" y="571.54"/>
      <point x="498.68" y="537.77"/>
      <point x="459.09" y="502.43" type="curve" smooth="yes"/>
      <point x="335.91" y="392.47" type="line"/>
    </contour>
  </outline>
</glyph>
<glyph name="dieresis" format="2">
  <advance width="446"/>
  <unicode hex="00A8"/>
  <note>
dieresis
</note>
  <outline>
    <contour>
      <point x="104.88" y="701.35" type="line"/>
      <point x="15" y="611.47" type="line"/>
      <point x="106.35" y="520.12" type="line"/>
      <point x="196.23" y="610" type="line"/>
    </contour>
    <contour>
      <point x="334.88" y="701.35" type="line"/>
      <point x="245" y="611.47" type="line"/>
      <point x="336.35" y="520.12" type="line"/>
      <point x="426.23" y="610" type="line"/>
    </contour>
  </outline>
</glyph>
<glyph name="copyright" format="2">
  <advance width="797"/>
  <unicode hex="00A9"/>
  <note>
copyright
</note>
  <outline>
    <contour>
      <point x="347.62" y="426.35" type="curve"/>
      <point x="342.82" y="433.53" type="line"/>
      <point x="304.61" y="420.55"/>
      <point x="270.47" y="395.8"/>
      <point x="246.28" y="363.5" type="curve" smooth="yes"/>
      <point x="222.09" y="331.2"/>
      <point x="207.91" y="291.43"/>
      <point x="206.57" y="251.1" type="curve" smooth="yes"/>
      <point x="204.95" y="202.3"/>
      <point x="222.54" y="152.81"/>
      <point x="255.84" y="117.1" type="curve" smooth="yes"/>
      <point x="289.14" y="81.39"/>
      <point x="338.36" y="60.24"/>
      <point x="387.07" y="63.6" type="curve" smooth="yes"/>
      <point x="411.54" y="65.29"/>
      <point x="435.62" y="73.03"/>
      <point x="456.22" y="86.35" type="curve" smooth="yes"/>
      <point x="476.81" y="99.67"/>
      <point x="493.81" y="118.56"/>
      <point x="504.57" y="140.6" type="curve" smooth="yes"/>
      <point x="512.4" y="156.64"/>
      <point x="516.95" y="174.27"/>
      <point x="517.82" y="192.1" type="curve"/>
      <point x="508.24" y="192.1" type="line"/>
      <point x="498.54" y="172.7"/>
      <point x="483.99" y="155.75"/>
      <point x="466.27" y="143.25" type="curve" smooth="yes"/>
      <point x="449.56" y="131.46"/>
      <point x="430.04" y="123.64"/>
      <point x="409.8" y="120.8" type="curve"/>
      <point x="409.8" y="210.38"/>
      <point x="409.8" y="299.95"/>
      <point x="409.8" y="389.53" type="curve"/>
      <point x="412.29" y="388.11"/>
      <point x="414.79" y="386.71"/>
      <point x="417.31" y="385.33" type="curve" smooth="yes"/>
      <point x="434.64" y="375.82"/>
      <point x="452.53" y="367.34"/>
      <point x="470.86" y="359.95" type="curve"/>
      <point x="530.33" y="422.06" type="line"/>
      <point x="526.24" y="426.88" type="line"/>
      <point x="510.47" y="413.79" type="line"/>
      <point x="499.07" y="417.37"/>
      <point x="487.9" y="421.66"/>
      <point x="477.03" y="426.62" type="curve" smooth="yes"/>
      <point x="459.01" y="434.84"/>
      <point x="441.84" y="444.91"/>
      <point x="425.86" y="456.62" type="curve"/>
      <point x="293.8" y="375.95" type="line"/>
      <point x="306.88" y="397.14"/>
      <point x="325.5" y="414.94"/>
    </contour>
    <contour>
      <point x="-24.42" y="250.01" type="curve" smooth="yes"/>
      <point x="-24.42" y="28.11"/>
      <point x="156.57" y="-151.99"/>
      <point x="379.58" y="-151.99" type="curve" smooth="yes"/>
      <point x="602.59" y="-151.99"/>
      <point x="783.58" y="28.11"/>
      <point x="783.58" y="250.01" type="curve" smooth="yes"/>
      <point x="783.58" y="471.91"/>
      <point x="602.59" y="652.01"/>
      <point x="379.58" y="652.01" type="curve" smooth="yes"/>
      <point x="156.57" y="652.01"/>
      <point x="-24.42" y="471.91"/>
    </contour>
    <contour>
      <point x="-4.22" y="250.01" type="curve" smooth="yes"/>
      <point x="-4.22" y="460.82"/>
      <point x="167.72" y="631.91"/>
      <point x="379.58" y="631.91" type="curve" smooth="yes"/>
      <point x="591.44" y="631.91"/>
      <point x="763.38" y="460.82"/>
      <point x="763.38" y="250.01" type="curve" smooth="yes"/>
      <point x="763.38" y="39.2"/>
      <point x="591.44" y="-131.89"/>
      <point x="379.58" y="-131.89" type="curve" smooth="yes"/>
      <point x="167.72" y="-131.89"/>
      <point x="-4.22" y="39.2"/>
    </contour>
    <contour>
      <point x="308.62" y="208.32" type="curve"/>
      <point x="281.21" y="196.63" type="line"/>
      <point x="277.55" y="205.49"/>
      <point x="274.72" y="214.71"/>
      <point x="272.66" y="224.07" type="curve" smooth="yes"/>
      <point x="267.77" y="246.25"/>
      <point x="266.8" y="269.21"/>
      <point x="268.62" y="291.85" type="curve" smooth="yes"/>
      <point x="270.26" y="312.32"/>
      <point x="274.29" y="332.76"/>
      <point x="281.81" y="351.83" type="curve"/>
      <point x="308.62" y="368.21" type="line"/>
      <point x="308.62" y="314.91"/>
      <point x="308.62" y="261.62"/>
    </contour>
    <contour>
      <point x="286.86" y="184.55" type="curve"/>
      <point x="373.12" y="220.85" type="line"/>
      <point x="373.15" y="407.63" type="line"/>
      <point x="377.01" y="409.99" type="line"/>
      <point x="383.07" y="405.87"/>
      <point x="389.23" y="401.89"/>
      <point x="395.47" y="398.05" type="curve"/>
      <point x="395.47" y="305.25"/>
      <point x="395.47" y="212.45"/>
      <point x="395.47" y="119.65" type="curve"/>
      <point x="379.33" y="119.29"/>
      <point x="363.12" y="122.11"/>
      <point x="348.15" y="128.13" type="curve" smooth="yes"/>
      <point x="329.88" y="135.47"/>
      <point x="313.59" y="147.6"/>
      <point x="301.12" y="162.85" type="curve" smooth="yes"/>
      <point x="295.62" y="169.57"/>
      <point x="290.89" y="176.87"/>
    </contour>
  </outline>
</glyph>
<glyph name="logicalnot" format="2">
  <advance width="494"/>
  <unicode hex="00AC"/>
  <note>
logicalnot
</note>
  <outline>
    <contour>
      <point x="53.48" y="330" type="line"/>
      <point x="365.61" y="330" type="line"/>
      <point x="366.22" y="134.03" type="line"/>
      <point x="473.22" y="134.03" type="line"/>
      <point x="472.22" y="457" type="line"/>
      <point x="365.22" y="457" type="line"/>
      <point x="137.21" y="457" type="line"/>
      <point x="15" y="320.41" type="line"/>
      <point x="29.38" y="306.03" type="line"/>
    </contour>
  </outline>
</glyph>
<glyph name="plusminus" format="2">
  <advance width="574"/>
  <unicode hex="00B1"/>
  <note>
plusminus
</note>
  <outline>
    <contour>
      <point x="131.32" y="60" type="line"/>
      <point x="34.17" y="-47" type="line"/>
      <point x="453.17" y="-47" type="line"/>
      <point x="550.32" y="60" type="line"/>
    </contour>
    <contour>
      <point x="131.32" y="420" type="line"/>
      <point x="34.17" y="313" type="line"/>
      <point x="239" y="313" type="line"/>
      <point x="239" y="100.85" type="line"/>
      <point x="346" y="198" type="line"/>
      <point x="346" y="313" type="line"/>
      <point x="453.17" y="313" type="line"/>
      <point x="550.32" y="420" type="line"/>
      <point x="346" y="420" type="line"/>
      <point x="346" y="637" type="line"/>
      <point x="239" y="539.85" type="line"/>
      <point x="239" y="420" type="line"/>
    </contour>
  </outline>
</glyph>
<glyph name="cedilla" format="2">
  <advance width="204"/>
  <unicode hex="00B8"/>
  <note>
cedilla
</note>
  <outline>
    <contour>
      <point x="32.69" y="-57.95" type="curve"/>
      <point x="39.19" y="-65.3" type="line"/>
      <point x="72.62" y="-49.34"/>
      <point x="104.45" y="-31.41"/>
      <point x="132.19" y="-10.5" type="curve" smooth="yes"/>
      <point x="147.69" y="1.19"/>
      <point x="161.8" y="13.97"/>
      <point x="172.36" y="28.26" type="curve" smooth="yes"/>
      <point x="182.92" y="42.55"/>
      <point x="189.7" y="58.41"/>
      <point x="190.69" y="74.6" type="curve" smooth="yes"/>
      <point x="191.88" y="94.18"/>
      <point x="184.49" y="113.87"/>
      <point x="170.69" y="130.73" type="curve" smooth="yes"/>
      <point x="157.52" y="146.82"/>
      <point x="138.73" y="160.45"/>
      <point x="116.69" y="170.2" type="curve"/>
      <point x="9" y="119" type="line"/>
      <point x="41.25" y="111.48"/>
      <point x="69.2" y="94.71"/>
      <point x="85.42" y="73.16" type="curve" smooth="yes"/>
      <point x="101.64" y="51.61"/>
      <point x="105.94" y="25.51"/>
      <point x="97.19" y="1.8" type="curve" smooth="yes"/>
      <point x="87.93" y="-23.3"/>
      <point x="64.08" y="-45.39"/>
    </contour>
  </outline>
</glyph>
<glyph name="onesuperior" format="2">
  <advance width="352"/>
  <unicode hex="00B9"/>
  <note>
uni00B9
</note>
  <outline>
    <contour>
      <point x="135.08" y="336.05" type="curve" smooth="yes"/>
      <point x="135.08" y="1.3" type="line"/>
      <point x="240.49" y="1.31" type="line"/>
      <point x="240.49" y="469.95" type="line"/>
      <point x="107.78" y="414.05" type="line"/>
      <point x="107.24" y="390.76" type="line"/>
      <point x="117.39" y="386.63"/>
      <point x="125.66" y="378.29"/>
      <point x="130.12" y="368.28" type="curve" smooth="yes"/>
      <point x="134.58" y="358.27"/>
      <point x="135.08" y="347.01"/>
    </contour>
  </outline>
</glyph>
<glyph name="Aring" format="2">
  <advance width="767"/>
  <unicode hex="00C5"/>
  <outline>
    <contour>
      <point x="480" y="764" type="curve" smooth="yes"/>
      <point x="543" y="763"/>
      <point x="575" y="811"/>
      <point x="575" y="858" type="curve" smooth="yes"/>
      <point x="575" y="910"/>
      <point x="533" y="952"/>
      <point x="481" y="952" type="curve" smooth="yes"/>
      <point x="429" y="952"/>
      <point x="387" y="909.89"/>
      <point x="387" y="858" type="curve" smooth="yes"/>
      <point x="387" y="803"/>
      <point x="434" y="764"/>
    </contour>
    <contour>
      <point x="481" y="792.2" type="curve" smooth="yes"/>
      <point x="444.68" y="792.2"/>
      <point x="415.2" y="821.68"/>
      <point x="415.2" y="858" type="curve" smooth="yes"/>
      <point x="415.2" y="894.32"/>
      <point x="444.68" y="923.8"/>
      <point x="481" y="923.8" type="curve" smooth="yes"/>
      <point x="517.32" y="923.8"/>
      <point x="547" y="894"/>
      <point x="546.8" y="858" type="curve" smooth="yes"/>
      <point x="547" y="822"/>
      <point x="517.32" y="792.2"/>
    </contour>
    <contour>
      <point x="166" y="128" type="line"/>
      <point x="200" y="128" type="line"/>
      <point x="529" y="673" type="line"/>
      <point x="495" y="673" type="line"/>
    </contour>
    <contour>
      <point x="273" y="271" type="line"/>
      <point x="541" y="271" type="line"/>
      <point x="611" y="373" type="line"/>
      <point x="336" y="373" type="line"/>
    </contour>
    <contour>
      <point x="292" y="318" type="curve"/>
      <point x="305" y="336" type="line"/>
      <point x="252" y="370"/>
      <point x="214" y="426"/>
      <point x="214" y="489" type="curve" smooth="yes"/>
      <point x="214" y="562"/>
      <point x="272" y="669"/>
      <point x="401" y="669" type="curve" smooth="yes"/>
      <point x="477" y="669"/>
      <point x="530" y="635"/>
      <point x="569" y="604" type="curve"/>
      <point x="639" y="696" type="line"/>
      <point x="594" y="731"/>
      <point x="523" y="768"/>
      <point x="438" y="768" type="curve" smooth="yes"/>
      <point x="310" y="768"/>
      <point x="160" y="692"/>
      <point x="160" y="513" type="curve" smooth="yes"/>
      <point x="160" y="408"/>
      <point x="235" y="341"/>
    </contour>
    <contour>
      <point x="629" y="0" type="curve"/>
      <point x="754" y="108" type="line"/>
      <point x="736" y="132" type="line"/>
      <point x="702" y="110" type="line"/>
      <point x="672" y="110"/>
      <point x="648" y="137"/>
      <point x="649" y="223" type="curve" smooth="yes"/>
      <point x="655" y="653" type="line" smooth="yes"/>
      <point x="656" y="694"/>
      <point x="663" y="717"/>
      <point x="692" y="753" type="curve"/>
      <point x="672" y="773" type="line"/>
      <point x="522" y="642" type="line"/>
      <point x="522" y="150" type="line" smooth="yes"/>
      <point x="522" y="58"/>
      <point x="603" y="0"/>
    </contour>
    <contour>
      <point x="47" y="10" type="curve"/>
      <point x="65" y="0" type="line"/>
      <point x="92" y="26"/>
      <point x="145" y="65"/>
      <point x="237" y="65" type="curve" smooth="yes"/>
      <point x="299" y="65"/>
      <point x="355" y="37"/>
      <point x="394" y="0" type="curve"/>
      <point x="583" y="172" type="line"/>
      <point x="555" y="201" type="line"/>
      <point x="469" y="124" type="line"/>
      <point x="444" y="144"/>
      <point x="380" y="174"/>
      <point x="311" y="174" type="curve" smooth="yes"/>
      <point x="199" y="174"/>
      <point x="101" y="120"/>
    </contour>
  </outline>
</glyph>
<glyph name="AE" format="2">
  <advance width="1188"/>
  <unicode hex="00C6"/>
  <note>
AE
</note>
  <outline>
    <contour>
      <point x="880" y="64" type="line"/>
      <point x="911" y="64" type="line"/>
      <point x="911" y="691" type="line"/>
      <point x="880" y="691" type="line"/>
    </contour>
    <contour>
      <point x="617" y="205" type="line"/>
      <point x="836" y="297" type="line"/>
      <point x="836" y="704" type="line"/>
      <point x="619" y="572" type="line"/>
      <point x="619" y="537" type="line"/>
      <point x="707" y="592" type="line"/>
      <point x="707" y="272" type="line"/>
      <point x="617" y="234" type="line"/>
    </contour>
    <contour>
      <point x="1033" y="576" type="curve"/>
      <point x="1152" y="700" type="line"/>
      <point x="1144" y="710" type="line"/>
      <point x="1112" y="683" type="line"/>
      <point x="1057" y="701"/>
      <point x="994" y="731"/>
      <point x="943" y="769" type="curve"/>
      <point x="836" y="704" type="line"/>
      <point x="812" y="659" type="line"/>
      <point x="845" y="676" type="line"/>
      <point x="896" y="642"/>
      <point x="974" y="599"/>
    </contour>
    <contour>
      <point x="896" y="333" type="line"/>
      <point x="1021" y="333" type="line"/>
      <point x="1142" y="460" type="line"/>
      <point x="896" y="460" type="line"/>
    </contour>
    <contour>
      <point x="144" y="128" type="line"/>
      <point x="178" y="128" type="line"/>
      <point x="507" y="673" type="line"/>
      <point x="473" y="673" type="line"/>
    </contour>
    <contour>
      <point x="251" y="271" type="line"/>
      <point x="519" y="271" type="line"/>
      <point x="589" y="373" type="line"/>
      <point x="314" y="373" type="line"/>
    </contour>
    <contour>
      <point x="270" y="318" type="curve"/>
      <point x="283" y="336" type="line"/>
      <point x="230" y="370"/>
      <point x="192" y="426"/>
      <point x="192" y="489" type="curve" smooth="yes"/>
      <point x="192" y="562"/>
      <point x="250" y="669"/>
      <point x="379" y="669" type="curve" smooth="yes"/>
      <point x="455" y="669"/>
      <point x="508" y="635"/>
      <point x="547" y="604" type="curve"/>
      <point x="617" y="696" type="line"/>
      <point x="572" y="731"/>
      <point x="501" y="768"/>
      <point x="416" y="768" type="curve" smooth="yes"/>
      <point x="288" y="768"/>
      <point x="138" y="692"/>
      <point x="138" y="513" type="curve" smooth="yes"/>
      <point x="138" y="408"/>
      <point x="213" y="341"/>
    </contour>
    <contour>
      <point x="855" y="-23" type="curve" smooth="yes"/>
      <point x="1045" y="-23"/>
      <point x="1130" y="141"/>
      <point x="1138" y="239" type="curve"/>
      <point x="1115" y="239" type="line"/>
      <point x="1052" y="120"/>
      <point x="955" y="97"/>
      <point x="897" y="97" type="curve" smooth="yes"/>
      <point x="773" y="97"/>
      <point x="633" y="186"/>
      <point x="633" y="332" type="curve" smooth="yes"/>
      <point x="633" y="653" type="line" smooth="yes"/>
      <point x="633" y="694"/>
      <point x="641" y="717"/>
      <point x="670" y="753" type="curve"/>
      <point x="650" y="773" type="line"/>
      <point x="500" y="642" type="line"/>
      <point x="500" y="331" type="line" smooth="yes"/>
      <point x="500" y="124"/>
      <point x="638" y="-23"/>
    </contour>
    <contour>
      <point x="25" y="10" type="curve"/>
      <point x="43" y="0" type="line"/>
      <point x="74" y="28"/>
      <point x="136" y="65"/>
      <point x="215" y="65" type="curve" smooth="yes"/>
      <point x="277" y="65"/>
      <point x="333" y="37"/>
      <point x="372" y="0" type="curve"/>
      <point x="561" y="172" type="line"/>
      <point x="533" y="201" type="line"/>
      <point x="447" y="124" type="line"/>
      <point x="422" y="144"/>
      <point x="353" y="174"/>
      <point x="289" y="174" type="curve" smooth="yes"/>
      <point x="186" y="174"/>
      <point x="79" y="120"/>
    </contour>
  </outline>
</glyph>
<glyph name="Ocircumflex" format="2">
  <advance width="754"/>
  <unicode hex="00D4"/>
  <note>
Ocircumflex
</note>
  <outline>
    <contour>
      <point x="267.47" y="859.93" type="line"/>
      <point x="285.42" y="841.79" type="line"/>
      <point x="387.42" y="942.79" type="line"/>
      <point x="495.92" y="841.79" type="line"/>
      <point x="569.39" y="920.71" type="line"/>
      <point x="445.41" y="1036.13" type="line"/>
    </contour>
    <contour>
      <point x="198.53" y="603.04" type="curve"/>
      <point x="260.97" y="628.96" type="line"/>
      <point x="260.97" y="521.2"/>
      <point x="260.97" y="413.44"/>
      <point x="260.97" y="305.68" type="curve"/>
      <point x="191.29" y="275.99" type="line"/>
      <point x="190.24" y="278.96"/>
      <point x="189.23" y="281.95"/>
      <point x="188.25" y="284.94" type="curve" smooth="yes"/>
      <point x="171.3" y="336.81"/>
      <point x="164.43" y="391.79"/>
      <point x="166.21" y="446.33" type="curve" smooth="yes"/>
      <point x="167.96" y="499.9"/>
      <point x="178.33" y="553.48"/>
    </contour>
    <contour>
      <point x="505.22" y="765" type="curve"/>
      <point x="216.27" y="640.76" type="line"/>
      <point x="216.91" y="641.95"/>
      <point x="217.56" y="643.15"/>
      <point x="218.22" y="644.33" type="curve" smooth="yes"/>
      <point x="245.14" y="693.12"/>
      <point x="283.1" y="735.84"/>
      <point x="328.72" y="767.83" type="curve"/>
      <point x="314.22" y="786.33" type="line"/>
      <point x="221.07" y="748.53"/>
      <point x="142.53" y="676.46"/>
      <point x="95.72" y="587.5" type="curve" smooth="yes"/>
      <point x="55.26" y="510.6"/>
      <point x="37.93" y="422.16"/>
      <point x="43.32" y="335.44" type="curve" smooth="yes"/>
      <point x="48.71" y="248.72"/>
      <point x="76.05" y="162.36"/>
      <point x="127.72" y="92.5" type="curve" smooth="yes"/>
      <point x="156.03" y="54.23"/>
      <point x="192.1" y="21.25"/>
      <point x="234.46" y="-0.48" type="curve" smooth="yes"/>
      <point x="276.82" y="-22.21"/>
      <point x="325.33" y="-31.98"/>
      <point x="372.72" y="-27.5" type="curve" smooth="yes"/>
      <point x="412.78" y="-23.71"/>
      <point x="451.59" y="-10.08"/>
      <point x="486.63" y="9.71" type="curve" smooth="yes"/>
      <point x="521.67" y="29.5"/>
      <point x="553.19" y="55.12"/>
      <point x="581.72" y="83.5" type="curve" smooth="yes"/>
      <point x="627.49" y="129.03"/>
      <point x="666.51" y="181.7"/>
      <point x="694.22" y="240" type="curve" smooth="yes"/>
      <point x="721.23" y="296.83"/>
      <point x="736.52" y="359.51"/>
      <point x="735.96" y="422.42" type="curve" smooth="yes"/>
      <point x="735.39" y="485.34"/>
      <point x="718.98" y="548.11"/>
      <point x="688.22" y="603" type="curve" smooth="yes"/>
      <point x="647.64" y="675.42"/>
      <point x="582.04" y="733.53"/>
    </contour>
    <contour>
      <point x="200.99" y="251.21" type="curve"/>
      <point x="389.97" y="330.75" type="line"/>
      <point x="390.03" y="682.55" type="line"/>
      <point x="392.3" y="683.49" type="line"/>
      <point x="407.42" y="674.71"/>
      <point x="422.12" y="665.21"/>
      <point x="436.34" y="655.02" type="curve"/>
      <point x="436.34" y="463.85"/>
      <point x="436.34" y="272.69"/>
      <point x="436.34" y="81.52" type="curve"/>
      <point x="436.13" y="81.51"/>
      <point x="435.93" y="81.5"/>
      <point x="435.72" y="81.49" type="curve" smooth="yes"/>
      <point x="405.61" y="79.92"/>
      <point x="375.24" y="85.47"/>
      <point x="347.34" y="96.89" type="curve" smooth="yes"/>
      <point x="319.44" y="108.31"/>
      <point x="294.03" y="125.5"/>
      <point x="272.22" y="146.32" type="curve" smooth="yes"/>
      <point x="241.44" y="175.72"/>
      <point x="217.9" y="212.03"/>
    </contour>
    <contour>
      <point x="465" y="85.29" type="curve"/>
      <point x="465" y="148.76"/>
      <point x="465" y="212.24"/>
      <point x="465" y="275.71" type="curve"/>
      <point x="630.71" y="359.37" type="line"/>
      <point x="638.62" y="302.46"/>
      <point x="631.23" y="242.89"/>
      <point x="604.22" y="192.32" type="curve" smooth="yes"/>
      <point x="587.65" y="161.3"/>
      <point x="563.81" y="134.04"/>
      <point x="534.58" y="114.49" type="curve" smooth="yes"/>
      <point x="513.54" y="100.42"/>
      <point x="489.77" y="90.45"/>
    </contour>
    <contour>
      <point x="465" y="633" type="curve"/>
      <point x="496.74" y="606.88"/>
      <point x="525.49" y="577.14"/>
      <point x="550.22" y="544.32" type="curve" smooth="yes"/>
      <point x="566.14" y="523.19"/>
      <point x="580.42" y="500.71"/>
      <point x="592.49" y="477.14" type="curve"/>
      <point x="465" y="412.78" type="line"/>
      <point x="465" y="486.19"/>
      <point x="465" y="559.59"/>
    </contour>
    <contour>
      <point x="465" y="307.83" type="line"/>
      <point x="465" y="380.67" type="line"/>
      <point x="604.68" y="451.19" type="line"/>
      <point x="613.32" y="430.99"/>
      <point x="620.28" y="410.11"/>
      <point x="625.25" y="388.73" type="curve"/>
    </contour>
  </outline>
</glyph>
<glyph name="atilde" format="2">
  <advance width="490"/>
  <unicode hex="00E3"/>
  <note>
atilde
</note>
  <outline>
    <contour>
      <point x="60.69" y="580.63" type="curve"/>
      <point x="85.86" y="567.18" type="line"/>
      <point x="93.79" y="574.81"/>
      <point x="102.6" y="581.38"/>
      <point x="112.02" y="586.62" type="curve" smooth="yes"/>
      <point x="120.88" y="591.55"/>
      <point x="130.3" y="595.3"/>
      <point x="140.01" y="597.63" type="curve" smooth="yes"/>
      <point x="162.58" y="603.04"/>
      <point x="186.24" y="600.03"/>
      <point x="208.31" y="592.86" type="curve" smooth="yes"/>
      <point x="230.38" y="585.7"/>
      <point x="251.36" y="575.05"/>
      <point x="273.34" y="567.58" type="curve" smooth="yes"/>
      <point x="291.81" y="561.3"/>
      <point x="311.08" y="557.35"/>
      <point x="330.47" y="557.64" type="curve" smooth="yes"/>
      <point x="349.86" y="557.93"/>
      <point x="369.21" y="562.43"/>
      <point x="387.05" y="570.79" type="curve" smooth="yes"/>
      <point x="408.72" y="580.94"/>
      <point x="428.1" y="596.59"/>
      <point x="444.03" y="615.51" type="curve" smooth="yes"/>
      <point x="455.82" y="629.51"/>
      <point x="465.77" y="645.32"/>
      <point x="473.57" y="662.28" type="curve"/>
      <point x="448.41" y="675.72" type="line"/>
      <point x="442.89" y="665.78"/>
      <point x="435.07" y="657.37"/>
      <point x="425.93" y="651.34" type="curve" smooth="yes"/>
      <point x="417.39" y="645.71"/>
      <point x="407.77" y="642.15"/>
      <point x="397.93" y="640.33" type="curve" smooth="yes"/>
      <point x="379.39" y="636.9"/>
      <point x="360.34" y="639.39"/>
      <point x="342.08" y="644.03" type="curve" smooth="yes"/>
      <point x="323.82" y="648.67"/>
      <point x="306.12" y="655.52"/>
      <point x="288.34" y="661.95" type="curve" smooth="yes"/>
      <point x="266.06" y="670.01"/>
      <point x="243.35" y="677.44"/>
      <point x="219.9" y="679.44" type="curve" smooth="yes"/>
      <point x="196.45" y="681.44"/>
      <point x="172.45" y="677.56"/>
      <point x="150.89" y="667.17" type="curve" smooth="yes"/>
      <point x="129.35" y="656.79"/>
      <point x="110.57" y="640.55"/>
      <point x="93.91" y="622.45" type="curve" smooth="yes"/>
      <point x="81.92" y="609.41"/>
      <point x="70.87" y="595.36"/>
    </contour>
    <contour>
      <point x="494.46" y="90.83" type="line"/>
      <point x="489.73" y="110.04" type="line"/>
      <point x="446.59" y="81.3" type="line"/>
      <point x="398.65" y="129.23" type="line"/>
      <point x="398.65" y="381.41" type="line"/>
      <point x="450.83" y="423.73" type="line"/>
      <point x="433.19" y="445.48" type="line"/>
      <point x="392.82" y="412.74" type="line"/>
      <point x="245.25" y="507.92" type="line"/>
      <point x="135" y="450.4" type="line" smooth="yes"/>
      <point x="123.32" y="444.31"/>
      <point x="111.74" y="437.79"/>
      <point x="101.83" y="429.12" type="curve" smooth="yes"/>
      <point x="92.56" y="421.01"/>
      <point x="84.69" y="411.19"/>
      <point x="79.49" y="400.03" type="curve" smooth="yes"/>
      <point x="74.29" y="388.87"/>
      <point x="71.85" y="376.4"/>
      <point x="72.69" y="364.12" type="curve" smooth="yes"/>
      <point x="73.59" y="350.83"/>
      <point x="78.28" y="337.92"/>
      <point x="85.45" y="326.69" type="curve" smooth="yes"/>
      <point x="99.04" y="305.4"/>
      <point x="120.73" y="290.43"/>
      <point x="143.54" y="279.6" type="curve" smooth="yes"/>
      <point x="148.44" y="277.27"/>
      <point x="153.41" y="275.11"/>
      <point x="158.43" y="273.07" type="curve"/>
      <point x="134.96" y="260.84"/>
      <point x="112.69" y="246.21"/>
      <point x="92.83" y="228.73" type="curve" smooth="yes"/>
      <point x="78.67" y="216.27"/>
      <point x="65.77" y="202.19"/>
      <point x="56.04" y="186.04" type="curve" smooth="yes"/>
      <point x="46.31" y="169.89"/>
      <point x="39.96" y="151.55"/>
      <point x="38.83" y="132.73" type="curve" smooth="yes"/>
      <point x="37.1" y="103.74"/>
      <point x="48.22" y="74.78"/>
      <point x="66.66" y="52.35" type="curve" smooth="yes"/>
      <point x="92.91" y="20.44"/>
      <point x="132.38" y="0.35"/>
      <point x="173.36" y="-4.98" type="curve"/>
      <point x="278.9" y="71.75" type="line"/>
      <point x="355.27" y="-4.76" type="line"/>
    </contour>
    <contour>
      <point x="274.02" y="265.54" type="curve"/>
      <point x="255.92" y="269.87"/>
      <point x="237.94" y="274.74"/>
      <point x="220.17" y="280.27" type="curve" smooth="yes"/>
      <point x="201.16" y="286.18"/>
      <point x="182.31" y="292.76"/>
      <point x="164.34" y="301.32" type="curve" smooth="yes"/>
      <point x="146.37" y="309.88"/>
      <point x="128.9" y="320.58"/>
      <point x="116.33" y="336.02" type="curve" smooth="yes"/>
      <point x="107.64" y="346.69"/>
      <point x="101.72" y="359.95"/>
      <point x="101.45" y="373.71" type="curve" smooth="yes"/>
      <point x="101.26" y="383.61"/>
      <point x="103.97" y="393.49"/>
      <point x="108.83" y="402.12" type="curve" smooth="yes"/>
      <point x="113.69" y="410.75"/>
      <point x="120.58" y="418.14"/>
      <point x="128.46" y="424.15" type="curve" smooth="yes"/>
      <point x="134.86" y="429.03"/>
      <point x="141.93" y="433.02"/>
      <point x="149.39" y="436.03" type="curve"/>
      <point x="274.02" y="359.34" type="line"/>
      <point x="274.02" y="328.07"/>
      <point x="274.02" y="296.8"/>
    </contour>
    <contour>
      <point x="274.02" y="236.59" type="curve"/>
      <point x="274.02" y="185.86"/>
      <point x="274.02" y="135.13"/>
      <point x="274.02" y="84.39" type="curve"/>
      <point x="263.3" y="81"/>
      <point x="251.73" y="80.31"/>
      <point x="240.66" y="82.36" type="curve" smooth="yes"/>
      <point x="226.48" y="84.99"/>
      <point x="213.31" y="92.03"/>
      <point x="202.49" y="101.55" type="curve" smooth="yes"/>
      <point x="191.67" y="111.07"/>
      <point x="183.05" y="122.94"/>
      <point x="176.33" y="135.69" type="curve" smooth="yes"/>
      <point x="162.09" y="162.71"/>
      <point x="155.49" y="194.2"/>
      <point x="160.33" y="224.36" type="curve" smooth="yes"/>
      <point x="162.72" y="239.25"/>
      <point x="168.01" y="253.68"/>
      <point x="175.88" y="266.53" type="curve"/>
      <point x="188.74" y="262.05"/>
      <point x="201.81" y="258.13"/>
      <point x="214.86" y="254.24" type="curve" smooth="yes"/>
      <point x="234.58" y="248.36"/>
      <point x="254.33" y="242.58"/>
    </contour>
  </outline>
</glyph>
<glyph name="ccedilla" format="2">
  <advance width="367"/>
  <unicode hex="00E7"/>
  <note>
ccedilla
</note>
  <outline>
    <contour>
      <point x="127.19" y="-209.76" type="curve"/>
      <point x="133.69" y="-217.12" type="line"/>
      <point x="167.12" y="-201.16"/>
      <point x="198.95" y="-183.23"/>
      <point x="226.69" y="-162.32" type="curve" smooth="yes"/>
      <point x="242.19" y="-150.63"/>
      <point x="256.3" y="-137.85"/>
      <point x="266.86" y="-123.56" type="curve" smooth="yes"/>
      <point x="277.42" y="-109.27"/>
      <point x="284.2" y="-93.41"/>
      <point x="285.19" y="-77.22" type="curve" smooth="yes"/>
      <point x="286.38" y="-57.64"/>
      <point x="278.99" y="-37.95"/>
      <point x="265.19" y="-21.09" type="curve" smooth="yes"/>
      <point x="255.78" y="-9.59"/>
      <point x="243.5" y="0.65"/>
      <point x="229.22" y="9.11" type="curve"/>
      <point x="218.83" y="-0.01" type="line"/>
      <point x="204.83" y="-0.01" type="line"/>
      <point x="191.54" y="9.04" type="line"/>
      <point x="103.5" y="-32.81" type="line"/>
      <point x="135.75" y="-40.33"/>
      <point x="163.7" y="-57.1"/>
      <point x="179.92" y="-78.65" type="curve" smooth="yes"/>
      <point x="196.14" y="-100.2"/>
      <point x="200.44" y="-126.3"/>
      <point x="191.69" y="-150.01" type="curve" smooth="yes"/>
      <point x="182.43" y="-175.11"/>
      <point x="158.58" y="-197.2"/>
    </contour>
    <contour>
      <point x="231.84" y="123" type="curve" smooth="yes"/>
      <point x="251.03" y="111.78"/>
      <point x="273.1" y="105.53"/>
      <point x="295.33" y="104.99" type="curve"/>
      <point x="353" y="146.66" type="line"/>
      <point x="366" y="129.16" type="line"/>
      <point x="229.23" y="9.12" type="line"/>
      <point x="223.52" y="12.5"/>
      <point x="217.49" y="15.61"/>
      <point x="211.2" y="18.39" type="curve"/>
      <point x="191.55" y="9.05" type="line"/>
      <point x="53.84" y="102.88" type="line"/>
      <point x="53.84" y="401.88" type="line"/>
      <point x="260.34" y="517" type="line"/>
      <point x="366.34" y="432" type="line"/>
      <point x="271.34" y="360" type="line"/>
      <point x="182.34" y="434" type="line"/>
      <point x="182.34" y="174" type="line"/>
      <point x="193.81" y="152.93"/>
      <point x="211.13" y="135.09"/>
    </contour>
  </outline>
</glyph>
<glyph name="dotlessi" format="2">
  <advance width="341"/>
  <unicode hex="0131"/>
  <note>
dotlessi
</note>
  <outline>
    <contour>
      <point x="56" y="55" type="line"/>
      <point x="90" y="79" type="line"/>
      <point x="183" y="-7" type="line"/>
      <point x="326" y="93" type="line"/>
      <point x="304" y="117" type="line"/>
      <point x="260" y="86" type="line"/>
      <point x="186" y="176" type="line"/>
      <point x="39" y="78" type="line"/>
    </contour>
    <contour>
      <point x="98" y="120" type="line"/>
      <point x="222" y="120" type="line"/>
      <point x="223" y="419" type="line"/>
      <point x="150" y="513" type="line"/>
      <point x="13" y="423" type="line"/>
      <point x="30" y="401" type="line"/>
      <point x="65" y="423" type="line"/>
      <point x="98" y="384" type="line"/>
    </contour>
  </outline>
</glyph>
<glyph name="OE" format="2">
  <advance width="1283"/>
  <unicode hex="0152"/>
  <note>
OE
</note>
  <outline>
    <contour>
      <point x="985.87" y="708.5" type="curve"/>
      <point x="976.27" y="722.86" type="line"/>
      <point x="899.16" y="698.1"/>
      <point x="830.11" y="648.87"/>
      <point x="781.6" y="584.03" type="curve" smooth="yes"/>
      <point x="759.88" y="555"/>
      <point x="742.32" y="522.88"/>
      <point x="729.41" y="489" type="curve"/>
      <point x="721.91" y="528.9"/>
      <point x="708.04" y="567.59"/>
      <point x="688.19" y="603.01" type="curve" smooth="yes"/>
      <point x="647.61" y="675.43"/>
      <point x="582.01" y="733.54"/>
      <point x="505.19" y="765.01" type="curve"/>
      <point x="216.24" y="640.77" type="line"/>
      <point x="216.88" y="641.96"/>
      <point x="217.53" y="643.16"/>
      <point x="218.19" y="644.34" type="curve" smooth="yes"/>
      <point x="245.11" y="693.13"/>
      <point x="283.07" y="735.85"/>
      <point x="328.69" y="767.84" type="curve"/>
      <point x="314.19" y="786.34" type="line"/>
      <point x="221.04" y="748.54"/>
      <point x="142.5" y="676.47"/>
      <point x="95.69" y="587.51" type="curve" smooth="yes"/>
      <point x="55.23" y="510.61"/>
      <point x="37.9" y="422.17"/>
      <point x="43.29" y="335.45" type="curve" smooth="yes"/>
      <point x="48.68" y="248.73"/>
      <point x="76.02" y="162.37"/>
      <point x="127.69" y="92.51" type="curve" smooth="yes"/>
      <point x="156" y="54.24"/>
      <point x="192.07" y="21.26"/>
      <point x="234.43" y="-0.47" type="curve" smooth="yes"/>
      <point x="276.79" y="-22.2"/>
      <point x="325.3" y="-31.97"/>
      <point x="372.69" y="-27.49" type="curve" smooth="yes"/>
      <point x="412.75" y="-23.7"/>
      <point x="451.56" y="-10.07"/>
      <point x="486.6" y="9.72" type="curve" smooth="yes"/>
      <point x="521.64" y="29.51"/>
      <point x="553.16" y="55.13"/>
      <point x="581.69" y="83.51" type="curve" smooth="yes"/>
      <point x="627.46" y="129.04"/>
      <point x="666.48" y="181.71"/>
      <point x="694.19" y="240.01" type="curve" smooth="yes"/>
      <point x="700.26" y="252.78"/>
      <point x="705.74" y="265.85"/>
      <point x="710.58" y="279.15" type="curve"/>
      <point x="723.93" y="209.81"/>
      <point x="756.33" y="144.11"/>
      <point x="804.66" y="92.65" type="curve" smooth="yes"/>
      <point x="871.08" y="21.92"/>
      <point x="967.82" y="-20.93"/>
      <point x="1064.77" y="-16.99" type="curve" smooth="yes"/>
      <point x="1115.37" y="-14.94"/>
      <point x="1165.57" y="-0.3"/>
      <point x="1208.66" y="26.31" type="curve" smooth="yes"/>
      <point x="1251.75" y="52.92"/>
      <point x="1287.46" y="91.55"/>
      <point x="1309.77" y="137.01" type="curve" smooth="yes"/>
      <point x="1325.5" y="169.06"/>
      <point x="1334.6" y="204.35"/>
      <point x="1336.27" y="240.01" type="curve"/>
      <point x="1317.1" y="240.01" type="line"/>
      <point x="1295.66" y="200.78"/>
      <point x="1264.73" y="166.76"/>
      <point x="1227.65" y="141.78" type="curve" smooth="yes"/>
      <point x="1192.62" y="118.18"/>
      <point x="1152.11" y="102.65"/>
      <point x="1110.22" y="97.31" type="curve"/>
      <point x="1110.22" y="333.01" type="line"/>
      <point x="1221.42" y="333.01" type="line"/>
      <point x="1343.42" y="460.01" type="line"/>
      <point x="1110.22" y="460.01" type="line"/>
      <point x="1110.22" y="634.86" type="line"/>
      <point x="1115.2" y="632.01"/>
      <point x="1120.21" y="629.21"/>
      <point x="1125.24" y="626.45" type="curve" smooth="yes"/>
      <point x="1159.9" y="607.43"/>
      <point x="1195.68" y="590.48"/>
      <point x="1232.34" y="575.7" type="curve"/>
      <point x="1351.28" y="699.93" type="line"/>
      <point x="1343.1" y="709.57" type="line"/>
      <point x="1311.56" y="683.39" type="line"/>
      <point x="1288.77" y="690.55"/>
      <point x="1266.42" y="699.13"/>
      <point x="1244.68" y="709.04" type="curve" smooth="yes"/>
      <point x="1208.64" y="725.48"/>
      <point x="1174.29" y="745.62"/>
      <point x="1142.35" y="769.04" type="curve"/>
      <point x="1142.35" y="769.04" type="line"/>
      <point x="1142.35" y="769.04" type="line"/>
      <point x="878.21" y="607.68" type="line"/>
      <point x="904.35" y="650.09"/>
      <point x="941.61" y="685.69"/>
    </contour>
    <contour>
      <point x="907.87" y="272.44" type="curve"/>
      <point x="852.89" y="249" type="line"/>
      <point x="845.55" y="266.72"/>
      <point x="839.89" y="285.17"/>
      <point x="835.78" y="303.89" type="curve" smooth="yes"/>
      <point x="826.03" y="348.27"/>
      <point x="824.19" y="394.2"/>
      <point x="827.87" y="439.5" type="curve" smooth="yes"/>
      <point x="831.19" y="480.44"/>
      <point x="839.25" y="521.33"/>
      <point x="854.27" y="559.47" type="curve"/>
      <point x="907.87" y="592.22" type="line"/>
      <point x="907.87" y="485.63"/>
      <point x="907.87" y="379.04"/>
    </contour>
    <contour>
      <point x="864.21" y="224.84" type="curve"/>
      <point x="1036.87" y="297.51" type="line"/>
      <point x="1036.93" y="671.07" type="line"/>
      <point x="1044.66" y="675.79" type="line"/>
      <point x="1056.79" y="667.56"/>
      <point x="1069.09" y="659.59"/>
      <point x="1081.57" y="651.9" type="curve"/>
      <point x="1081.57" y="95.32" type="line"/>
      <point x="1049.33" y="94.86"/>
      <point x="1016.99" y="100.52"/>
      <point x="987.06" y="112.48" type="curve" smooth="yes"/>
      <point x="950.53" y="127.08"/>
      <point x="917.87" y="151.14"/>
      <point x="892.87" y="181.51" type="curve" smooth="yes"/>
      <point x="881.82" y="194.93"/>
      <point x="872.3" y="209.49"/>
    </contour>
    <contour>
      <point x="198.52" y="603.07" type="curve"/>
      <point x="260.96" y="628.99" type="line"/>
      <point x="260.96" y="521.23"/>
      <point x="260.96" y="413.47"/>
      <point x="260.96" y="305.71" type="curve"/>
      <point x="191.28" y="276.02" type="line"/>
      <point x="190.23" y="278.99"/>
      <point x="189.22" y="281.98"/>
      <point x="188.24" y="284.97" type="curve" smooth="yes"/>
      <point x="171.29" y="336.84"/>
      <point x="164.42" y="391.82"/>
      <point x="166.2" y="446.36" type="curve" smooth="yes"/>
      <point x="167.95" y="499.93"/>
      <point x="178.32" y="553.51"/>
    </contour>
    <contour>
      <point x="200.98" y="251.24" type="curve"/>
      <point x="389.96" y="330.78" type="line"/>
      <point x="390.02" y="682.58" type="line"/>
      <point x="392.29" y="683.52" type="line"/>
      <point x="407.41" y="674.74"/>
      <point x="422.11" y="665.24"/>
      <point x="436.33" y="655.05" type="curve"/>
      <point x="436.33" y="463.88"/>
      <point x="436.33" y="272.72"/>
      <point x="436.33" y="81.55" type="curve"/>
      <point x="436.12" y="81.54"/>
      <point x="435.92" y="81.53"/>
      <point x="435.71" y="81.52" type="curve" smooth="yes"/>
      <point x="405.6" y="79.95"/>
      <point x="375.23" y="85.5"/>
      <point x="347.33" y="96.92" type="curve" smooth="yes"/>
      <point x="319.43" y="108.34"/>
      <point x="294.02" y="125.53"/>
      <point x="272.21" y="146.35" type="curve" smooth="yes"/>
      <point x="241.43" y="175.75"/>
      <point x="217.89" y="212.06"/>
    </contour>
    <contour>
      <point x="464.99" y="85.32" type="curve"/>
      <point x="464.99" y="148.79"/>
      <point x="464.99" y="212.27"/>
      <point x="464.99" y="275.74" type="curve"/>
      <point x="630.7" y="359.4" type="line"/>
      <point x="638.61" y="302.49"/>
      <point x="631.22" y="242.92"/>
      <point x="604.21" y="192.35" type="curve" smooth="yes"/>
      <point x="587.64" y="161.33"/>
      <point x="563.8" y="134.07"/>
      <point x="534.57" y="114.52" type="curve" smooth="yes"/>
      <point x="513.53" y="100.45"/>
      <point x="489.76" y="90.48"/>
    </contour>
    <contour>
      <point x="464.99" y="633.03" type="curve"/>
      <point x="496.73" y="606.91"/>
      <point x="525.48" y="577.17"/>
      <point x="550.21" y="544.35" type="curve" smooth="yes"/>
      <point x="566.13" y="523.22"/>
      <point x="580.41" y="500.74"/>
      <point x="592.48" y="477.17" type="curve"/>
      <point x="464.99" y="412.81" type="line"/>
      <point x="464.99" y="486.22"/>
      <point x="464.99" y="559.62"/>
    </contour>
    <contour>
      <point x="464.99" y="307.86" type="line"/>
      <point x="464.99" y="380.7" type="line"/>
      <point x="604.67" y="451.22" type="line"/>
      <point x="613.31" y="431.02"/>
      <point x="620.27" y="410.14"/>
      <point x="625.24" y="388.76" type="curve"/>
    </contour>
  </outline>
</glyph>
<glyph name="ring" format="2">
  <advance width="308"/>
  <unicode hex="02DA"/>
  <outline>
    <contour>
      <point x="60" y="618" type="curve" smooth="yes"/>
      <point x="60" y="566"/>
      <point x="102" y="524"/>
      <point x="154" y="524" type="curve" smooth="yes"/>
      <point x="206" y="524"/>
      <point x="248" y="566"/>
      <point x="248" y="618" type="curve" smooth="yes"/>
      <point x="248" y="670"/>
      <point x="206" y="712"/>
      <point x="154" y="712" type="curve" smooth="yes"/>
      <point x="102" y="712"/>
      <point x="60" y="670"/>
    </contour>
    <contour>
      <point x="88" y="618" type="curve" smooth="yes"/>
      <point x="88" y="654"/>
      <point x="118" y="684"/>
      <point x="154" y="684" type="curve" smooth="yes"/>
      <point x="190" y="684"/>
      <point x="220" y="654"/>
      <point x="220" y="618" type="curve" smooth="yes"/>
      <point x="220" y="582"/>
      <point x="190" y="552"/>
      <point x="154" y="552" type="curve" smooth="yes"/>
      <point x="118" y="552"/>
      <point x="88" y="582"/>
    </contour>
  </outline>
</glyph>
<glyph name="circumflexcomb" format="2">
  <unicode hex="0302"/>
  <note>
circumflexcomb
</note>
  <outline>
    <contour>
      <point x="96.78" y="561.42" type="line"/>
      <point x="114.74" y="543.29" type="line"/>
      <point x="216.74" y="644.29" type="line"/>
      <point x="325.24" y="543.29" type="line"/>
      <point x="398.71" y="622.21" type="line"/>
      <point x="274.72" y="737.62" type="line"/>
    </contour>
  </outline>
</glyph>
<glyph name="dieresiscomb" format="2">
  <unicode hex="0308"/>
  <note>
dieresiscomb
</note>
  <outline>
    <contour>
      <point x="104.88" y="701.35" type="line"/>
      <point x="15" y="611.47" type="line"/>
      <point x="106.35" y="520.12" type="line"/>
      <point x="196.23" y="610" type="line"/>
    </contour>
    <contour>
      <point x="334.88" y="701.35" type="line"/>
      <point x="245" y="611.47" type="line"/>
      <point x="336.35" y="520.12" type="line"/>
      <point x="426.23" y="610" type="line"/>
    </contour>
  </outline>
</glyph>
<glyph name="ringabovecomb.case" format="2">
  <unicode hex="030A"/>
  <note>
ringabovecomb
</note>
  <outline>
    <contour>
      <point x="-94" y="618" type="curve" smooth="yes"/>
      <point x="-94" y="566"/>
      <point x="-52" y="524"/>
      <point x="0" y="524" type="curve" smooth="yes"/>
      <point x="52" y="524"/>
      <point x="94" y="566"/>
      <point x="94" y="618" type="curve" smooth="yes"/>
      <point x="94" y="670"/>
      <point x="52" y="712"/>
      <point x="0" y="712" type="curve" smooth="yes"/>
      <point x="-52" y="712"/>
      <point x="-94" y="670"/>
    </contour>
    <contour>
      <point x="-66" y="618" type="curve" smooth="yes"/>
      <point x="-66" y="654"/>
      <point x="-36" y="684"/>
      <point x="0" y="684" type="curve" smooth="yes"/>
      <point x="36" y="684"/>
      <point x="66" y="654"/>
      <point x="66" y="618" type="curve" smooth="yes"/>
      <point x="66" y="582"/>
      <point x="36" y="552"/>
      <point x="0" y="552" type="curve" smooth="yes"/>
      <point x="-36" y="552"/>
      <point x="-66" y="582"/>
    </contour>
  </outline>
</glyph>
<glyph name="hungarumlautcomb" format="2">
  <unicode hex="030B"/>
  <note>
hungarumlautcomb
</note>
  <outline>
    <contour>
      <point x="72.34" y="544.33" type="line"/>
      <point x="200.67" y="687" type="line"/>
      <point x="149.34" y="726.67" type="line"/>
      <point x="63.67" y="551" type="line"/>
    </contour>
    <contour>
      <point x="178.34" y="544.33" type="line"/>
      <point x="306.67" y="687" type="line"/>
      <point x="255.34" y="726.67" type="line"/>
      <point x="169.67" y="551" type="line"/>
    </contour>
  </outline>
</glyph>
<glyph name="quotedblright" format="2">
  <advance width="509"/>
  <unicode hex="201D"/>
  <note>
quotedblright
</note>
  <outline>
    <contour>
      <point x="336.5" y="442.5" type="curve"/>
      <point x="343" y="432.33" type="line"/>
      <point x="376.43" y="454.37"/>
      <point x="408.26" y="479.12"/>
      <point x="436" y="508" type="curve" smooth="yes"/>
      <point x="451.5" y="524.14"/>
      <point x="465.61" y="541.79"/>
      <point x="476.17" y="561.51" type="curve" smooth="yes"/>
      <point x="486.73" y="581.24"/>
      <point x="493.51" y="603.14"/>
      <point x="494.5" y="625.5" type="curve" smooth="yes"/>
      <point x="495.69" y="652.53"/>
      <point x="488.3" y="679.72"/>
      <point x="474.5" y="703" type="curve" smooth="yes"/>
      <point x="461.33" y="725.22"/>
      <point x="442.54" y="744.04"/>
      <point x="420.5" y="757.5" type="curve"/>
      <point x="285" y="668.67" type="line"/>
      <point x="298" y="647.67" type="line"/>
      <point x="310.67" y="656" type="line" smooth="yes"/>
      <point x="315.47" y="659.16"/>
      <point x="320.44" y="662.19"/>
      <point x="325.94" y="663.86" type="curve" smooth="yes"/>
      <point x="331.44" y="665.53"/>
      <point x="337.32" y="665.88"/>
      <point x="343" y="665" type="curve" smooth="yes"/>
      <point x="356.71" y="662.88"/>
      <point x="368.75" y="654.23"/>
      <point x="377.69" y="643.61" type="curve" smooth="yes"/>
      <point x="386.63" y="633"/>
      <point x="392.91" y="620.32"/>
      <point x="397.27" y="607.15" type="curve" smooth="yes"/>
      <point x="405.99" y="580.8"/>
      <point x="407.51" y="551.98"/>
      <point x="401" y="525" type="curve" smooth="yes"/>
      <point x="392.54" y="489.97"/>
      <point x="368.69" y="458.7"/>
    </contour>
    <contour>
      <point x="66.5" y="442.5" type="curve"/>
      <point x="73" y="432.33" type="line"/>
      <point x="106.43" y="454.37"/>
      <point x="138.26" y="479.12"/>
      <point x="166" y="508" type="curve" smooth="yes"/>
      <point x="181.5" y="524.14"/>
      <point x="195.61" y="541.79"/>
      <point x="206.17" y="561.51" type="curve" smooth="yes"/>
      <point x="216.73" y="581.24"/>
      <point x="223.51" y="603.14"/>
      <point x="224.5" y="625.5" type="curve" smooth="yes"/>
      <point x="225.69" y="652.53"/>
      <point x="218.3" y="679.72"/>
      <point x="204.5" y="703" type="curve" smooth="yes"/>
      <point x="191.33" y="725.22"/>
      <point x="172.54" y="744.04"/>
      <point x="150.5" y="757.5" type="curve"/>
      <point x="15" y="668.67" type="line"/>
      <point x="28" y="647.67" type="line"/>
      <point x="40.67" y="656" type="line" smooth="yes"/>
      <point x="45.47" y="659.16"/>
      <point x="50.44" y="662.19"/>
      <point x="55.94" y="663.86" type="curve" smooth="yes"/>
      <point x="61.44" y="665.53"/>
      <point x="67.32" y="665.88"/>
      <point x="73" y="665" type="curve" smooth="yes"/>
      <point x="86.71" y="662.88"/>
      <point x="98.75" y="654.23"/>
      <point x="107.69" y="643.61" type="curve" smooth="yes"/>
      <point x="116.63" y="633"/>
      <point x="122.91" y="620.32"/>
      <point x="127.27" y="607.15" type="curve" smooth="yes"/>
      <point x="135.99" y="580.8"/>
      <point x="137.51" y="551.98"/>
      <point x="131" y="525" type="curve" smooth="yes"/>
      <point x="122.54" y="489.97"/>
      <point x="98.69" y="458.7"/>
    </contour>
  </outline>
</glyph>
<glyph name="ellipsis" format="2">
  <advance width="871"/>
  <unicode hex="2026"/>
  <note>
ellipsis
</note>
  <outline>
    <contour>
      <point x="764.88" y="170.35" type="line"/>
      <point x="675" y="80.47" type="line"/>
      <point x="766.35" y="-10.88" type="line"/>
      <point x="856.23" y="79" type="line"/>
    </contour>
    <contour>
      <point x="434.88" y="170.35" type="line"/>
      <point x="345" y="80.47" type="line"/>
      <point x="436.35" y="-10.88" type="line"/>
      <point x="526.23" y="79" type="line"/>
    </contour>
    <contour>
      <point x="104.88" y="170.35" type="line"/>
      <point x="15" y="80.47" type="line"/>
      <point x="106.35" y="-10.88" type="line"/>
      <point x="196.23" y="79" type="line"/>
    </contour>
  </outline>
</glyph>
<glyph name="uni20BF" format="2">
  <advance width="806"/>
  <unicode hex="20BF"/>
  <note>
uni20BF
</note>
  <outline>
    <contour>
      <point x="30.28" y="309.38" type="curve"/>
      <point x="49.42" y="309.36" type="line"/>
      <point x="48.12" y="316.51"/>
      <point x="48.33" y="323.94"/>
      <point x="50.08" y="331" type="curve" smooth="yes"/>
      <point x="53.02" y="342.9"/>
      <point x="60.62" y="353.68"/>
      <point x="71.16" y="359.94" type="curve" smooth="yes"/>
      <point x="76.43" y="363.07"/>
      <point x="82.33" y="365.07"/>
      <point x="88.37" y="366.1" type="curve" smooth="yes"/>
      <point x="94.41" y="367.13"/>
      <point x="100.57" y="367.2"/>
      <point x="106.7" y="367.2" type="curve" smooth="yes"/>
      <point x="116.89" y="367.2"/>
      <point x="127.08" y="367.2"/>
      <point x="137.27" y="367.2" type="curve"/>
      <point x="137.27" y="344.58"/>
      <point x="137.27" y="321.95"/>
      <point x="137.27" y="299.33" type="curve" smooth="yes"/>
      <point x="137.27" y="272.96"/>
      <point x="137.87" y="246.5"/>
      <point x="134.79" y="220.32" type="curve" smooth="yes"/>
      <point x="131.71" y="194.14"/>
      <point x="123.94" y="167.89"/>
      <point x="107.85" y="147" type="curve" smooth="yes"/>
      <point x="99.24" y="135.82"/>
      <point x="88.43" y="126.33"/>
      <point x="76.18" y="119.33" type="curve"/>
      <point x="85.51" y="95.33" type="line"/>
      <point x="144.78" y="110.18"/>
      <point x="201.21" y="142.95"/>
      <point x="236.26" y="193" type="curve" smooth="yes"/>
      <point x="247.46" y="209"/>
      <point x="256.04" y="226.9"/>
      <point x="260.83" y="245.83" type="curve" smooth="yes"/>
      <point x="265.62" y="264.76"/>
      <point x="266.26" y="284.47"/>
      <point x="266.26" y="304" type="curve" smooth="yes"/>
      <point x="266.26" y="406" type="line"/>
      <point x="266.33" y="552.48" type="line" smooth="yes"/>
      <point x="266.34" y="566.63"/>
      <point x="266.73" y="581.15"/>
      <point x="272.17" y="594.21" type="curve" smooth="yes"/>
      <point x="274.89" y="600.74"/>
      <point x="278.78" y="606.76"/>
      <point x="283.51" y="612.03" type="curve" smooth="yes"/>
      <point x="288.24" y="617.29"/>
      <point x="293.78" y="621.75"/>
      <point x="299.34" y="626.12" type="curve" smooth="yes"/>
      <point x="447.11" y="741.92" type="line"/>
      <point x="453.34" y="764.16" type="line"/>
      <point x="441.83" y="757.14"/>
      <point x="429.27" y="751.49"/>
      <point x="416.09" y="747.43" type="curve" smooth="yes"/>
      <point x="397.12" y="741.58"/>
      <point x="376.89" y="739.14"/>
      <point x="356.84" y="739.92" type="curve" smooth="yes"/>
      <point x="334.45" y="740.79"/>
      <point x="312.53" y="745.64"/>
      <point x="290.73" y="750.3" type="curve" smooth="yes"/>
      <point x="268.93" y="754.96"/>
      <point x="246.75" y="759.09"/>
      <point x="224.34" y="758.67" type="curve" smooth="yes"/>
      <point x="195.89" y="758.14"/>
      <point x="167.88" y="749.95"/>
      <point x="143.84" y="736.36" type="curve" smooth="yes"/>
      <point x="102.2" y="712.81"/>
      <point x="71.3" y="675.48"/>
      <point x="54.34" y="634.17" type="curve"/>
      <point x="77.84" y="634.17" type="line"/>
      <point x="81.11" y="644.93"/>
      <point x="87.94" y="654.79"/>
      <point x="97.21" y="662.26" type="curve" smooth="yes"/>
      <point x="106.48" y="669.73"/>
      <point x="118.11" y="674.74"/>
      <point x="130.34" y="677.01" type="curve" smooth="yes"/>
      <point x="150.9" y="680.83"/>
      <point x="172.26" y="676.85"/>
      <point x="192.28" y="671.21" type="curve" smooth="yes"/>
      <point x="212.3" y="665.57"/>
      <point x="232.05" y="658.67"/>
      <point x="252.84" y="656.04" type="curve" smooth="yes"/>
      <point x="262.51" y="654.82"/>
      <point x="272.31" y="654.61"/>
      <point x="282.02" y="655.35" type="curve"/>
      <point x="253.8" y="637.41"/>
      <point x="225.58" y="619.49"/>
      <point x="197.34" y="601.59" type="curve" smooth="yes"/>
      <point x="180.28" y="590.78"/>
      <point x="162.8" y="579.47"/>
      <point x="151.38" y="562.82" type="curve" smooth="yes"/>
      <point x="145.67" y="554.49"/>
      <point x="141.64" y="545.03"/>
      <point x="139.52" y="535.16" type="curve" smooth="yes"/>
      <point x="137.39" y="525.29"/>
      <point x="137.21" y="515.12"/>
      <point x="137.22" y="505.02" type="curve" smooth="yes"/>
      <point x="137.23" y="479.05" type="line"/>
      <point x="115.44" y="475.9"/>
      <point x="93.58" y="472.58"/>
      <point x="73.76" y="463.27" type="curve" smooth="yes"/>
      <point x="59.74" y="456.68"/>
      <point x="47.11" y="447.04"/>
      <point x="37.47" y="434.92" type="curve" smooth="yes"/>
      <point x="27.82" y="422.8"/>
      <point x="21.17" y="408.38"/>
      <point x="17.76" y="393.27" type="curve" smooth="yes"/>
      <point x="11.4" y="365.08"/>
      <point x="16.22" y="334.64"/>
    </contour>
    <contour>
      <point x="457.36" y="-3.78" type="curve"/>
      <point x="488.17" y="12.14" type="line"/>
      <point x="488.17" y="-52.45" type="line"/>
      <point x="516.84" y="-52.4" type="line"/>
      <point x="516.84" y="26.97" type="line"/>
      <point x="548.17" y="43.18" type="line"/>
      <point x="548.17" y="-52.44" type="line"/>
      <point x="576.84" y="-52.39" type="line"/>
      <point x="576.84" y="58.01" type="line"/>
      <point x="791.51" y="169.04" type="line"/>
      <point x="791.51" y="420.04" type="line"/>
      <point x="768.53" y="439.03"/>
      <point x="743.71" y="455.8"/>
      <point x="717.51" y="470.04" type="curve" smooth="yes"/>
      <point x="697.39" y="480.97"/>
      <point x="676.46" y="490.41"/>
      <point x="654.96" y="498.26" type="curve"/>
      <point x="779.35" y="585.54" type="line"/>
      <point x="617.6" y="775.27" type="line"/>
      <point x="603.85" y="770.7"/>
      <point x="590.26" y="765.67"/>
      <point x="576.85" y="760.17" type="curve"/>
      <point x="576.85" y="789.78" type="line"/>
      <point x="548.19" y="789.78" type="line"/>
      <point x="548.19" y="747.61" type="line"/>
      <point x="537.6" y="742.66"/>
      <point x="527.15" y="737.42"/>
      <point x="516.85" y="731.9" type="curve"/>
      <point x="516.85" y="789.79" type="line"/>
      <point x="488.19" y="789.79" type="line"/>
      <point x="488.19" y="715.58" type="line"/>
      <point x="474.42" y="707.26"/>
      <point x="460.96" y="698.42"/>
      <point x="447.85" y="689.08" type="curve" smooth="yes"/>
      <point x="397.27" y="653.04"/>
      <point x="351.97" y="609.6"/>
      <point x="313.85" y="560.56" type="curve"/>
      <point x="313.85" y="248.05" type="line" smooth="yes"/>
      <point x="313.85" y="236.77"/>
      <point x="313.61" y="225.44"/>
      <point x="311.73" y="214.32" type="curve" smooth="yes"/>
      <point x="309.85" y="203.2"/>
      <point x="306.46" y="192.35"/>
      <point x="301.85" y="182.05" type="curve" smooth="yes"/>
      <point x="297.66" y="172.68"/>
      <point x="292.55" y="163.74"/>
      <point x="286.68" y="155.32" type="curve"/>
      <point x="180.73" y="132.6"/>
      <point x="85.84" y="62.2"/>
      <point x="31.77" y="-31.95" type="curve"/>
      <point x="56.06" y="-31.95" type="line"/>
      <point x="77.91" y="-10.75"/>
      <point x="103.52" y="6.53"/>
      <point x="131.27" y="19.05" type="curve" smooth="yes"/>
      <point x="162.29" y="33.04"/>
      <point x="195.86" y="41.07"/>
      <point x="229.77" y="44.05" type="curve" smooth="yes"/>
      <point x="308.02" y="50.93"/>
      <point x="387.71" y="32.54"/>
    </contour>
    <contour>
      <point x="516.87" y="125.02" type="curve"/>
      <point x="516.86" y="225.71"/>
      <point x="516.86" y="326.39"/>
      <point x="516.86" y="427.08" type="curve"/>
      <point x="527.43" y="423.29"/>
      <point x="537.88" y="419.18"/>
      <point x="548.2" y="414.75" type="curve"/>
      <point x="548.2" y="311.83"/>
      <point x="548.2" y="208.9"/>
      <point x="548.2" y="105.98" type="curve"/>
      <point x="538.13" y="112.92"/>
      <point x="527.66" y="119.28"/>
    </contour>
    <contour>
      <point x="488.21" y="138.51" type="curve"/>
      <point x="483.44" y="140.47"/>
      <point x="478.63" y="142.32"/>
      <point x="473.78" y="144.05" type="curve" smooth="yes"/>
      <point x="430.35" y="159.53"/>
      <point x="383.7" y="165.49"/>
      <point x="337.68" y="162.45" type="curve"/>
      <point x="348.4" y="171.99"/>
      <point x="359.18" y="181.48"/>
      <point x="369.87" y="191.05" type="curve" smooth="yes"/>
      <point x="392.8" y="211.59"/>
      <point x="415.26" y="233.6"/>
      <point x="429.47" y="260.91" type="curve" smooth="yes"/>
      <point x="436.57" y="274.57"/>
      <point x="441.47" y="289.35"/>
      <point x="444.06" y="304.52" type="curve" smooth="yes"/>
      <point x="446.65" y="319.69"/>
      <point x="446.87" y="335.16"/>
      <point x="446.87" y="350.55" type="curve" smooth="yes"/>
      <point x="446.87" y="406.55" type="line"/>
      <point x="446.87" y="612.32" type="line"/>
      <point x="448.49" y="629.45"/>
      <point x="454.38" y="646.16"/>
      <point x="463.87" y="660.52" type="curve" smooth="yes"/>
      <point x="470.43" y="670.45"/>
      <point x="478.72" y="679.24"/>
      <point x="488.21" y="686.43" type="curve"/>
      <point x="488.21" y="503.79"/>
      <point x="488.21" y="321.15"/>
    </contour>
    <contour>
      <point x="516.87" y="688.45" type="curve"/>
      <point x="548.21" y="651.55" type="line"/>
      <point x="548.21" y="459.82" type="line"/>
      <point x="516.87" y="436.43" type="line"/>
      <point x="516.87" y="520.44"/>
      <point x="516.87" y="604.44"/>
    </contour>
    <contour>
      <point x="647.87" y="534.24" type="line"/>
      <point x="576.87" y="481.23" type="line"/>
      <point x="576.87" y="617.82" type="line"/>
    </contour>
    <contour>
      <point x="576.88" y="83.74" type="curve"/>
      <point x="576.87" y="189.65"/>
      <point x="576.87" y="295.57"/>
      <point x="576.87" y="401.48" type="curve"/>
      <point x="584.8" y="397.53"/>
      <point x="592.64" y="393.39"/>
      <point x="600.37" y="389.06" type="curve" smooth="yes"/>
      <point x="621.24" y="377.38"/>
      <point x="641.35" y="364.34"/>
      <point x="660.54" y="350.06" type="curve"/>
      <point x="660.54" y="120.06" type="line"/>
      <point x="578.79" y="82.06" type="line"/>
      <point x="578.15" y="82.62"/>
      <point x="577.52" y="83.18"/>
    </contour>
  </outline>
</glyph>
<glyph name="circumflexcomb.case" format="2">
  <note>
circumflexcomb
</note>
  <anchor x="0" y="513" name="_top"/>
  <outline>
    <contour>
      <point x="-125" y="543" type="line"/>
      <point x="-23" y="644" type="line"/>
      <point x="85" y="543" type="line"/>
      <point x="159" y="622" type="line"/>
      <point x="35" y="738" type="line"/>
      <point x="-143" y="561" type="line"/>
    </contour>
  </outline>
</glyph>
<glyph name="dieresiscomb.case" format="2">
  <note>
dieresiscomb
</note>
  <anchor x="0" y="513" name="_top"/>
  <outline>
    <contour>
      <point x="-115" y="539" type="line"/>
      <point x="-25" y="629" type="line"/>
      <point x="-116" y="720" type="line"/>
      <point x="-206" y="630" type="line"/>
    </contour>
    <contour>
      <point x="115" y="539" type="line"/>
      <point x="205" y="629" type="line"/>
      <point x="114" y="720" type="line"/>
      <point x="24" y="630" type="line"/>
    </contour>
  </outline>
</glyph>
<glyph name="gravecomb.case" format="2">
  <note>
gravecomb
</note>
  <anchor x="0" y="513" name="_top"/>
  <outline>
    <contour>
      <point x="53" y="551" type="line"/>
      <point x="-75" y="694" type="line"/>
      <point x="-24" y="734" type="line"/>
      <point x="62" y="558" type="line"/>
    </contour>
  </outline>
</glyph>
